<?xml version="1.0" encoding="utf-8"?>
<!-- Generator: Adobe Illustrator 23.0.3, SVG Export Plug-In . SVG Version: 6.00 Build 0)  -->
<svg version="1.1" id="Слой_1" xmlns="http://www.w3.org/2000/svg" xmlns:xlink="http://www.w3.org/1999/xlink" x="0px" y="0px"
	 viewBox="0 0 48.31 48.07" style="enable-background:new 0 0 48.31 48.07;" xml:space="preserve">
<style type="text/css">
	.st0{fill:#17B0A2;}
</style>
<path class="st0" d="M47.19,24.64c-0.05,12.74-10.32,22.88-23.1,22.82C11.68,47.4,1.32,36.94,1.38,24.54
	C1.44,11.67,11.8,1.56,24.85,1.64C37.14,1.72,47.24,12.12,47.19,24.64z M24.08,21.08c-3.03,0.07-3.15,0.01-8.87-4.07
	c-1.06,2.07-0.67,3.86,1.13,5.63c-0.73-0.11-1.17-0.18-1.61-0.24c-0.16,0.15-0.31,0.3-0.47,0.45c0.89,1.32,1.79,2.63,2.64,3.88
	c0.01-0.01-0.31,0.15-0.63,0.31c1.01,1.03,2.01,2.06,3.24,3.31c-1.53,0.44-3.38,0.97-5.22,1.5c-0.03,0.16-0.07,0.32-0.1,0.47
	c1.8,0.39,3.59,1.04,5.41,1.13c7.18,0.38,12.78-3.47,13.44-11.1c0.13-1.5,0.58-2.67,1.73-3.59c0.11-0.09,0.12-0.31,0.19-0.49
	c-0.52,0.03-0.97,0.06-1.5,0.09c0.39-0.64,0.69-1.15,1.27-2.1c-1.85,1.04-3.17,0.93-4.55-0.03c-0.57-0.4-1.61-0.33-2.38-0.2
	C25.29,16.46,24.62,17.41,24.08,21.08z"/>
</svg>
