<?xml version="1.0" encoding="utf-8"?>
<!-- Generator: Adobe Illustrator 23.0.3, SVG Export Plug-In . SVG Version: 6.00 Build 0)  -->
<svg version="1.1" id="Слой_1" xmlns="http://www.w3.org/2000/svg" xmlns:xlink="http://www.w3.org/1999/xlink" x="0px" y="0px"
	 viewBox="0 0 48.31 48.07" style="enable-background:new 0 0 48.31 48.07;" xml:space="preserve">
<style type="text/css">
	.st0{fill:#17B0A2;}
</style>
<path class="st0" d="M47,24.66c-0.02,12.55-10.25,22.8-22.74,22.79C11.59,47.45,1.23,37.22,1.2,24.7
	C1.16,11.82,11.49,1.61,24.52,1.64C36.95,1.67,47.02,11.98,47,24.66z M23.9,25.92c-0.85,3.84-4.53,4.59-6.96,3.74
	c-3.04-1.07-4.59-4.42-3.46-7.43c1.28-3.42,4.65-4.39,9.21-2.57c0.66-0.69,1.35-1.42,2.04-2.15c-3.6-2.94-8.21-2.91-11.73,0.02
	c-3.18,2.65-3.99,7.55-1.85,11.24c2.1,3.63,6.54,5.3,10.52,3.97c4.19-1.41,6.28-4.96,5.58-9.65c-2.74,0-5.49,0-8.32,0
	c0,0.95,0,1.8,0,2.82C20.61,25.92,22.17,25.92,23.9,25.92z M30.58,25.62c0.82,0.07,1.44,0.11,2.11,0.17
	c0.09,0.88,0.17,1.66,0.24,2.38c0.95,0,1.74,0,2.52,0c0.09-0.89,0.16-1.63,0.24-2.41c0.84-0.05,1.57-0.1,2.35-0.14
	c0-0.92,0-1.71,0-2.55c-0.84-0.07-1.57-0.13-2.36-0.2c-0.09-0.77-0.16-1.44-0.24-2.11c-0.93,0-1.72,0-2.54,0
	c-0.09,0.79-0.16,1.46-0.23,2.11c-0.79,0.1-1.45,0.18-2.09,0.26C30.58,24.02,30.58,24.76,30.58,25.62z"/>
</svg>
