<?xml version="1.0" encoding="utf-8"?>
<!-- Generator: Adobe Illustrator 23.0.3, SVG Export Plug-In . SVG Version: 6.00 Build 0)  -->
<svg version="1.1" id="Слой_1" xmlns="http://www.w3.org/2000/svg" xmlns:xlink="http://www.w3.org/1999/xlink" x="0px" y="0px"
	 viewBox="0 0 48.31 48.07" style="enable-background:new 0 0 48.31 48.07;" xml:space="preserve">
<style type="text/css">
	.st0{fill:#17B0A2;}
</style>
<path class="st0" d="M23.79,47.45C10.71,47.35,0.92,37.18,1,23.78C1.08,11.77,11.7,1.58,24.07,1.66
	c12.62,0.08,22.88,10.57,22.75,23.27C46.69,37.41,36.34,47.54,23.79,47.45z M19.86,35.78c1.57,0,3,0,4.62,0c0-2.5,0.01-4.91,0-7.31
	c-0.02-2.43,0.93-3.68,2.84-3.65c1.66,0.02,2.3,0.96,2.31,3.42c0.01,2.51,0,5.03,0,7.52c1.78,0,3.27,0,4.92,0
	c0-2.85,0.02-5.57-0.01-8.29c-0.01-0.69-0.15-1.39-0.28-2.07c-0.93-4.67-5.05-6.09-8.68-3.02c-0.3,0.25-0.58,0.51-0.96,0.84
	c-0.12-0.8-0.2-1.41-0.29-2.02c-1.53,0-2.96,0-4.46,0C19.86,26.07,19.86,30.82,19.86,35.78z M12.56,21.17c0,4.93,0,9.77,0,14.58
	c1.78,0,3.4,0,5.07,0c0-4.92,0-9.71,0-14.58C15.88,21.17,14.26,21.17,12.56,21.17z M17.85,16.24c0.05-1.35-0.95-2.47-2.28-2.46
	c-1.5,0.01-2.35,0.81-2.4,2.32c-0.04,1.45,0.79,2.22,2.16,2.37C16.66,18.62,17.8,17.57,17.85,16.24z"/>
</svg>
