<?xml version="1.0" encoding="utf-8"?>
<!-- Generator: Adobe Illustrator 23.0.3, SVG Export Plug-In . SVG Version: 6.00 Build 0)  -->
<svg version="1.1" id="Слой_1" xmlns="http://www.w3.org/2000/svg" xmlns:xlink="http://www.w3.org/1999/xlink" x="0px" y="0px"
	 viewBox="0 0 192.88 45.4" style="enable-background:new 0 0 192.88 45.4;" xml:space="preserve">
<style type="text/css">
	.st0{fill:#FDFDFC;}
	.st1{fill:#94C900;}
	.st2{fill:#ADD742;}
	.st3{fill:#98C618;}
	.st4{fill:#201E22;}
	.st5{fill:#E1F0B8;}
</style>
<g>
	<path class="st0" d="M103.99,47.38c-34.46,0-68.91,0-103.37,0.01c-0.5,0-0.63-0.09-0.63-0.61c0.02-18.16,0.02-36.33,0-54.49
		c0-0.43,0.05-0.57,0.54-0.57c69.03,0.01,138.05,0.01,207.08,0.01c0.41,0,0.53,0.07,0.53,0.51c-0.01,18.21-0.01,36.42,0,54.63
		c0,0.5-0.16,0.53-0.58,0.53C173.04,47.38,138.51,47.38,103.99,47.38z M90.67,34.06c0.03,0.03,0.07,0.07,0.1,0.1
		c0.15,0.32,0.09,0.66,0.1,1c0.01,0.27,0.13,0.4,0.41,0.42c0.32,0.03,0.38-0.16,0.38-0.41c0-1.13-0.01-2.25,0-3.38
		c0-0.34-0.17-0.41-0.45-0.44c-0.35-0.03-0.34,0.2-0.36,0.43c-0.03,0.31-0.05,0.63-0.12,0.94c-0.13,0.59-0.61,0.9-1.33,0.86
		c-0.59-0.03-1.03-0.26-1.15-0.91c-0.14-0.74-0.12-1.48-0.08-2.22c0.02-0.31-0.08-0.51-0.46-0.51c-0.35,0.01-0.44,0.23-0.41,0.48
		c0.09,0.78-0.02,1.57,0.13,2.36c0.14,0.72,0.57,1.11,1.24,1.35C89.38,34.4,90.01,34.14,90.67,34.06z M17.06,7.15
		C17.06,7.15,17.07,7.15,17.06,7.15c0,1.53,0,3.06,0,4.6c0,0.27-0.03,0.5,0.41,0.5c1.55-0.02,3.11,0,4.66,0.03
		c0.44,0.01,0.59-0.12,0.59-0.57c-0.02-3-0.02-5.99-0.01-8.99c0-0.44-0.11-0.59-0.56-0.59c-1.53,0.02-3.06,0.03-4.59,0
		c-0.46-0.01-0.5,0.21-0.5,0.57C17.07,4.18,17.06,5.67,17.06,7.15z M24.08,7.17C24.09,7.17,24.09,7.17,24.08,7.17
		c0.01,1.49,0.04,2.98-0.01,4.46c-0.02,0.48,0.12,0.57,0.54,0.57c1.47-0.02,2.93-0.02,4.4,0c0.35,0,0.54-0.07,0.54-0.48
		c-0.01-3.02-0.01-6.04-0.01-9.06c0-0.33-0.09-0.49-0.45-0.49c-1.53,0.01-3.07,0-4.6,0c-0.27,0-0.43,0.02-0.42,0.41
		C24.1,4.1,24.08,5.64,24.08,7.17z M71.23,24.32c-0.97,0.05-1.6-0.47-1.62-1.38c-0.04-1.33-0.01-2.66-0.04-3.99
		c-0.03-1.6,0.28-1.3-1.42-1.36c-0.4-0.01-0.56,0.11-0.55,0.54c0.02,1.44-0.02,2.89,0.01,4.33c0.02,0.76,0.11,1.5,0.54,2.19
		c0.81,1.29,2.95,1.53,4.08,1.19c0.3-0.09,0.58-0.24,0.91-0.12c0.35,0.13,0.66,0.55,1.01,0.38c0.38-0.18,0.31-0.72,0.5-1.07
		c0.13-0.24,0.38-0.57-0.13-0.75c-0.12-0.04-0.1-0.24-0.08-0.37c0.16-1.67,0.09-3.33,0.08-5c-0.01-1.34,0-1.31-1.34-1.31
		c-0.5,0-0.6,0.18-0.59,0.63c0.03,1.33,0.02,2.66,0.01,3.99c0,0.18,0.11,0.46-0.15,0.52c-0.18,0.04-0.3-0.17-0.38-0.33
		c-0.21-0.42-0.45-0.34-0.74-0.08c-1.04,0.9-1.04,0.94-0.11,1.9C71.23,24.22,71.22,24.25,71.23,24.32z M167.15,6.28
		c0.05-0.02,0.1-0.03,0.15-0.05c0.12,0.21,0.24,0.41,0.36,0.62c0.93,1.65,1.88,3.28,2.78,4.94c0.29,0.53,0.74,0.35,1.12,0.32
		c0.42-0.03,0.23-0.43,0.23-0.66c0.01-2.75-0.01-5.5,0.03-8.25c0.01-0.63-0.25-0.66-0.75-0.67c-0.52-0.01-0.75,0.08-0.73,0.68
		c0.05,1.75,0.02,3.49,0.02,5.24c-0.22-0.15-0.33-0.33-0.44-0.51c-0.95-1.69-1.92-3.36-2.85-5.06c-0.29-0.53-0.75-0.33-1.13-0.3
		c-0.36,0.03-0.19,0.4-0.19,0.61c-0.01,2.77,0.01,5.54-0.03,8.32c-0.01,0.58,0.21,0.67,0.7,0.64c0.42-0.02,0.76,0.06,0.74-0.6
		C167.12,9.79,167.15,8.04,167.15,6.28z M97.08,12.14c0.41,0,0.81,0.01,1.22,0c1.19-0.04,2.09-0.59,2.54-1.69
		c0.44-1.08,0.3-2.13-0.57-2.98c-0.24-0.23-0.25-0.36-0.06-0.65c1.16-1.8-0.05-4.14-2.19-4.25c-0.74-0.04-1.49,0.01-2.23-0.02
		c-0.38-0.01-0.5,0.09-0.5,0.48c0.02,2.88,0.01,5.76,0,8.65c0,0.34,0.08,0.49,0.45,0.47C96.18,12.12,96.63,12.14,97.08,12.14z
		 M57.01,6.19c0.04-0.01,0.08-0.01,0.11-0.02c0.08,0.13,0.16,0.26,0.24,0.4c0.96,1.71,1.95,3.4,2.87,5.13
		c0.29,0.55,0.72,0.48,1.14,0.43c0.46-0.05,0.23-0.47,0.23-0.71c0.02-2.75,0-5.51,0.02-8.26c0-0.44-0.07-0.61-0.57-0.62
		c-0.62-0.02-0.87,0.1-0.82,0.79c0.07,1.08,0.02,2.16,0.02,3.25c0,0.66,0,1.32,0,1.98c-0.47-0.6-0.83-1.22-1.18-1.85
		c-0.71-1.26-1.45-2.5-2.11-3.77c-0.29-0.55-0.72-0.38-1.11-0.35C55.42,2.6,55.63,3,55.63,3.22c-0.02,2.75,0.01,5.51-0.03,8.26
		c-0.01,0.61,0.22,0.67,0.73,0.68c0.58,0.02,0.71-0.16,0.69-0.72C56.99,9.69,57.01,7.94,57.01,6.19z M174.92,7.35
		c0-0.56,0-1.13,0-1.69c0.01-1.05,0.59-1.75,1.5-1.83c0.82-0.07,1.49,0.49,1.69,1.49c0.16,0.79,0.74,0.36,1.13,0.41
		c0.46,0.06,0.3-0.36,0.28-0.58c-0.1-1.41-1.33-2.6-2.75-2.71c-1.52-0.11-2.97,0.88-3.17,2.35c-0.24,1.7-0.23,3.42,0,5.12
		c0.19,1.43,1.66,2.47,3.1,2.37c1.49-0.1,2.76-1.32,2.83-2.78c0.04-0.81,0-1.62,0.01-2.43c0.01-0.31-0.08-0.45-0.41-0.44
		c-0.79,0.02-1.58,0.01-2.37,0.01c-0.15,0-0.31-0.05-0.4,0.15c-0.31,0.65,0.07,1.26,0.78,1.26c1.11,0,1.12,0,1.01,1.12
		c-0.01,0.07-0.02,0.13-0.03,0.2c-0.16,0.96-0.8,1.52-1.7,1.47c-0.89-0.05-1.48-0.7-1.5-1.67C174.91,8.57,174.92,7.96,174.92,7.35z
		 M64.06,7.31c0,1.44,0.03,2.89-0.01,4.33c-0.02,0.61,0.35,0.5,0.7,0.5c0.33,0,0.73,0.13,0.7-0.49c-0.05-0.95-0.03-1.9,0-2.84
		c0.01-0.25-0.21-0.63,0.22-0.74c0.45-0.11,0.74,0.06,0.95,0.51c0.41,0.9,0.88,1.78,1.32,2.66c0.49,0.98,0.49,0.97,1.59,0.9
		c0.41-0.02,0.38-0.16,0.23-0.45c-0.56-1.08-1.1-2.17-1.68-3.24c-0.19-0.36-0.27-0.54,0.2-0.79c1.13-0.59,1.61-1.82,1.32-3.05
		c-0.28-1.16-1.36-2.03-2.62-2.06c-0.81-0.02-1.63,0.01-2.44-0.01c-0.39-0.01-0.49,0.12-0.49,0.5C64.07,4.47,64.06,5.89,64.06,7.31z
		 M83.15,7.34c0,1.38,0.03,2.75-0.02,4.13c-0.02,0.59,0.18,0.7,0.72,0.7c0.51,0,0.71-0.11,0.68-0.66c-0.05-0.99,0-1.99-0.02-2.98
		c-0.01-0.35,0.11-0.48,0.46-0.47c0.63,0.02,1.26,0.04,1.89,0c0.41-0.02,0.49,0.14,0.48,0.5c-0.02,1.01,0.03,2.03-0.02,3.05
		c-0.03,0.64,0.35,0.55,0.72,0.54c0.35-0.01,0.76,0.16,0.75-0.51c-0.03-2.84-0.03-5.69,0-8.53c0.01-0.71-0.42-0.51-0.79-0.54
		c-0.43-0.04-0.72-0.02-0.69,0.58c0.05,1.01,0,2.03,0.02,3.05c0.01,0.33-0.04,0.49-0.43,0.47c-0.65-0.03-1.31-0.03-1.96,0
		c-0.36,0.01-0.45-0.11-0.45-0.46c0.02-1.04-0.03-2.08,0.02-3.11c0.03-0.58-0.29-0.54-0.66-0.52c-0.35,0.02-0.76-0.15-0.74,0.52
		C83.19,4.49,83.15,5.91,83.15,7.34z M36.62,20.65c0.04,0.8-0.06,1.81,0.11,2.82c0.21,1.25,0.82,2.12,2.11,2.38
		c1.93,0.38,3.84-0.12,4.17-2.68c0.08-0.6-0.04-0.84-0.71-0.82c-1.06,0.04-1.06-0.01-1.31,0.96c-0.02,0.07-0.03,0.13-0.05,0.2
		c-0.19,0.63-0.63,0.91-1.27,0.84c-0.59-0.06-0.92-0.45-0.98-1.02c-0.07-0.58-0.07-1.16-0.09-1.75c-0.01-0.36,0.15-0.51,0.54-0.51
		c1.13,0.02,2.26-0.03,3.38,0.02c0.83,0.03,0.5-0.54,0.56-0.91c0.08-0.5-0.18-0.6-0.63-0.58c-1.06,0.04-2.12-0.01-3.18,0.03
		c-0.56,0.02-0.7-0.21-0.68-0.72c0.05-1.35,0.04-1.33-1.31-1.33c-0.54,0-0.66,0.24-0.65,0.69C36.63,18.99,36.62,19.71,36.62,20.65z
		 M51.74,20.54C51.75,20.54,51.75,20.54,51.74,20.54c0.01,0.79-0.04,1.58,0.02,2.37c0.1,1.25,0.39,2.54,2.16,2.93
		c2.19,0.48,4.1-0.27,4.21-3.04c0.01-0.2,0-0.41-0.23-0.41c-0.51-0.01-1.05-0.17-1.53,0.04c-0.38,0.17-0.23,0.64-0.29,0.97
		c-0.11,0.57-0.43,0.88-0.98,0.95c-0.6,0.07-1.05-0.16-1.26-0.77c-0.21-0.61-0.13-1.25-0.17-1.88c-0.03-0.47,0.16-0.63,0.63-0.62
		c1.1,0.03,2.21-0.03,3.32,0.02c0.8,0.04,0.55-0.49,0.6-0.89c0.05-0.48-0.15-0.62-0.62-0.61c-1.08,0.04-2.17,0-3.25,0.03
		c-0.5,0.01-0.67-0.17-0.67-0.67c0-1.45-0.02-1.44-1.42-1.38c-0.38,0.02-0.52,0.15-0.51,0.52C51.75,18.92,51.74,19.73,51.74,20.54z
		 M108.39,7.36C108.38,7.36,108.38,7.36,108.39,7.36c0-0.68,0.02-1.35-0.01-2.03c-0.05-1.59-1.31-2.85-2.89-2.9
		c-1.61-0.05-3.02,1.15-3.1,2.75c-0.07,1.44-0.07,2.88,0,4.32c0.08,1.61,1.51,2.85,3.08,2.78c1.62-0.07,2.88-1.35,2.92-2.96
		C108.4,8.67,108.39,8.01,108.39,7.36z M36.55,7.35c0,1.44,0.02,2.89-0.01,4.33c-0.02,0.65,0.41,0.44,0.73,0.46
		c0.31,0.01,0.69,0.14,0.66-0.45c-0.04-1.06,0-2.12-0.02-3.18c-0.01-0.35,0.08-0.48,0.45-0.46c0.63,0.03,1.26,0.02,1.89,0
		c0.38-0.02,0.51,0.11,0.5,0.5c-0.02,1.04,0.02,2.08-0.02,3.11c-0.02,0.63,0.39,0.47,0.72,0.47c0.34,0.01,0.71,0.13,0.7-0.49
		c-0.03-2.89-0.02-5.78,0-8.66c0-0.67-0.46-0.4-0.75-0.42c-0.31-0.03-0.69-0.15-0.66,0.44c0.04,1.06,0,2.12,0.02,3.18
		c0.01,0.35-0.09,0.48-0.45,0.46c-0.63-0.03-1.26-0.03-1.89,0c-0.38,0.02-0.5-0.09-0.49-0.48c0.03-0.99-0.04-1.99,0.03-2.98
		c0.04-0.65-0.27-0.62-0.75-0.65c-0.56-0.03-0.66,0.18-0.65,0.68C36.57,4.6,36.55,5.97,36.55,7.35z M44.69,7.36
		c0,1.42,0.02,2.84-0.01,4.26c-0.01,0.42,0.12,0.54,0.53,0.53c1.29-0.03,2.57-0.04,3.86,0.01c0.59,0.02,0.77-0.13,0.75-0.74
		c-0.02-0.54-0.12-0.79-0.7-0.71c-0.31,0.04-0.63,0.02-0.95,0c-0.67-0.04-1.61,0.3-1.94-0.13c-0.34-0.44-0.09-1.33-0.13-2.03
		c-0.02-0.37,0.09-0.53,0.49-0.51c0.61,0.03,1.22-0.03,1.83,0.02c0.53,0.04,0.61-0.21,0.56-0.64c-0.05-0.35,0.2-0.86-0.53-0.8
		c-0.65,0.05-1.31,0-1.96,0.02c-0.29,0.01-0.39-0.09-0.38-0.39c0.02-0.61,0.02-1.22,0-1.83c-0.01-0.35,0.11-0.48,0.47-0.47
		c0.9,0.02,1.81-0.03,2.71,0.02c0.58,0.03,0.55-0.3,0.51-0.67C49.76,2.98,50,2.52,49.3,2.55c-1.37,0.04-2.75,0.03-4.13,0
		c-0.46-0.01-0.5,0.18-0.5,0.55C44.69,4.52,44.68,5.94,44.69,7.36z M157.99,6.15c0,1.04-0.02,2.08,0.01,3.11
		c0.05,1.74,1.41,3.06,3.08,3.02c1.68-0.05,2.93-1.35,2.94-3.08c0.01-2.01-0.02-4.02,0.02-6.02c0.01-0.59-0.22-0.65-0.7-0.64
		c-0.44,0.01-0.74-0.01-0.73,0.62c0.05,1.96,0.02,3.92,0.02,5.89c0,1.09-0.63,1.79-1.58,1.8c-0.98,0.01-1.63-0.7-1.64-1.82
		c-0.01-1.92-0.03-3.83,0.01-5.75c0.01-0.6-0.14-0.73-0.73-0.75c-0.67-0.02-0.72,0.26-0.7,0.78C158.02,4.26,157.99,5.21,157.99,6.15
		z M129.7,2.43c-1.36,0-2.47,0.74-2.78,1.85c-0.33,1.19,0.25,2.43,1.47,3.12c0.47,0.26,0.97,0.48,1.45,0.73
		c0.28,0.15,0.56,0.29,0.8,0.49c0.42,0.35,0.68,0.79,0.49,1.37c-0.19,0.56-0.62,0.8-1.18,0.86c-0.81,0.09-1.46-0.24-1.8-0.93
		c-0.37-0.74-0.73-0.54-1.23-0.21c-0.29,0.19-0.35,0.34-0.16,0.64c0.42,0.66,0.89,1.24,1.6,1.61c1.42,0.73,3.22,0.23,3.94-1.12
		c0.72-1.35,0.18-2.9-1.3-3.71c-0.55-0.3-1.13-0.57-1.69-0.85c-0.37-0.19-0.7-0.42-0.9-0.79c-0.31-0.56-0.14-1.16,0.43-1.43
		c0.66-0.32,1.41-0.37,1.89,0.18c0.54,0.62,0.92,0.33,1.42,0.07c0.32-0.17,0.31-0.3,0.11-0.55C131.59,2.93,130.77,2.44,129.7,2.43z
		 M65.48,21.02c0-0.72,0-1.44,0-2.16c0-1.28,0-1.25-1.29-1.28c-0.58-0.01-0.7,0.2-0.7,0.74c0,1.01,0.13,2.03-0.08,3.03
		c-0.12,0.59-0.46,0.88-1.08,0.89c-0.62,0.01-1.05-0.19-1.18-0.84c-0.05-0.24-0.09-0.49-0.12-0.73C61,20.4,60.9,20.24,60.6,20.29
		c-0.5,0.08-1.06-0.2-1.51,0.2c-0.04,0.03-0.02,0.13-0.01,0.2c0.1,1.76,0.9,3.11,2.85,3.14c0.49,0.01,1.12-0.2,1.44,0.03
		c0.42,0.29,0.1,0.97,0.15,1.47c0.03,0.31,0.11,0.45,0.43,0.44c0.88-0.02,1.76-0.02,2.63-0.04c0.13,0,0.33,0.03,0.33-0.14
		c0.02-0.38,0.06-0.79-0.06-1.14c-0.08-0.25-0.45-0.13-0.68-0.1c-0.56,0.06-0.74-0.15-0.71-0.71C65.52,22.78,65.48,21.9,65.48,21.02
		z M79,20.55c0-0.92-0.02-1.68,0.01-2.45c0.01-0.37-0.09-0.53-0.48-0.52c-0.86,0.02-1.71,0.01-2.57,0.01c-0.13,0-0.35-0.03-0.36,0.1
		c-0.04,0.38-0.08,0.78,0,1.14c0.07,0.33,0.44,0.16,0.64,0.14c0.67-0.05,0.85,0.24,0.82,0.87c-0.04,1.03-0.05,2.08,0.01,3.11
		c0.09,1.8,0.75,2.65,2.46,2.92c2.29,0.36,3.7-0.63,3.88-2.95c0.01-0.18,0.1-0.5-0.16-0.52c-0.53-0.04-1.1-0.17-1.6,0.02
		c-0.36,0.14-0.15,0.56-0.22,0.86c-0.18,0.74-0.61,1.1-1.33,1.06c-0.6-0.04-0.93-0.43-1.04-1.19C78.9,22.25,79.07,21.32,79,20.55z
		 M75.66,7.35c0,0.79-0.04,1.58,0.01,2.37c0.08,1.47,1.36,2.63,2.79,2.57c1.53-0.06,2.7-1.3,2.69-2.83c0-0.35-0.06-0.61-0.46-0.5
		c-0.33,0.09-0.91-0.37-0.94,0.44c-0.05,0.96-0.61,1.51-1.4,1.47c-0.79-0.04-1.28-0.64-1.28-1.6c0-1.26,0-2.53,0-3.79
		c0-0.98,0.52-1.63,1.31-1.65c0.77-0.02,1.3,0.53,1.38,1.51c0.06,0.74,0.6,0.3,0.92,0.4c0.31,0.09,0.48-0.03,0.49-0.41
		c0.06-1.49-1.07-2.79-2.55-2.89c-1.54-0.1-2.84,1.01-2.93,2.54C75.63,5.77,75.66,6.56,75.66,7.35z M44.44,22.65
		c0,0.65,0.01,1.21,0,1.78c-0.02,1.38-0.02,1.35,1.34,1.37c0.51,0.01,0.65-0.16,0.64-0.66c-0.03-1.51-0.02-3.02-0.01-4.53
		c0.01-0.54,0.06-1.1,0.62-1.4c0.84-0.46,1.71,0,1.81,1.05c0.06,0.72,0.38,0.87,0.99,0.77c0.13-0.02,0.27-0.04,0.4-0.02
		c0.67,0.09,0.68-0.31,0.61-0.79c-0.28-1.91-1.29-2.85-3.23-2.8c-1.41,0.04-2.54,0.41-3,2.16C44.32,20.63,44.54,21.69,44.44,22.65z
		 M144.52,7.31c0,1.44,0.03,2.89-0.01,4.33c-0.02,0.61,0.35,0.51,0.69,0.5c0.35-0.01,0.79,0.17,0.76-0.51
		c-0.05-0.99,0.01-1.98-0.02-2.97c-0.01-0.46,0.09-0.65,0.59-0.61c0.61,0.05,1.22,0.02,1.82,0.01c0.15,0,0.39,0.06,0.42-0.11
		c0.05-0.37,0.1-0.78,0.01-1.14c-0.08-0.31-0.46-0.14-0.71-0.16c-0.69-0.06-1.66,0.3-1.99-0.14c-0.35-0.46-0.09-1.38-0.12-2.09
		c-0.02-0.37,0.13-0.45,0.47-0.45c0.9,0.02,1.81-0.03,2.7,0.02c0.61,0.04,0.52-0.33,0.5-0.68c-0.02-0.33,0.22-0.79-0.48-0.77
		c-1.37,0.04-2.75,0.02-4.12,0c-0.39-0.01-0.5,0.12-0.49,0.5C144.54,4.47,144.52,5.89,144.52,7.31z M135.69,8
		c0,1.17,0.03,2.35-0.01,3.52c-0.02,0.51,0.13,0.66,0.64,0.64c0.48-0.02,0.78,0,0.77-0.66c-0.04-2.3,0-4.6-0.03-6.91
		c-0.01-0.52,0.15-0.68,0.65-0.63c0.45,0.04,0.9,0.01,1.35,0.01c0.61-0.01,0.33-0.48,0.35-0.75c0.02-0.26,0.2-0.67-0.37-0.67
		c-1.76,0.01-3.52,0-5.28,0c-0.15,0-0.3-0.03-0.37,0.19c-0.25,0.77,0.05,1.22,0.83,1.22c0.32,0,0.63,0.03,0.95-0.01
		c0.4-0.04,0.55,0.08,0.54,0.51C135.67,5.65,135.69,6.82,135.69,8z M154.23,8.1C154.23,8.1,154.23,8.1,154.23,8.1
		c0-0.14,0-0.27,0-0.41c0-0.68-0.01-1.35,0-2.03c0.01-0.54-0.17-1.23,0.1-1.57c0.28-0.36,1.01-0.07,1.54-0.12
		c0.04,0,0.09-0.01,0.14,0c0.72,0.11,0.5-0.41,0.53-0.77c0.03-0.37,0.06-0.68-0.52-0.66c-1.6,0.04-3.2,0.04-4.81,0
		c-0.57-0.01-0.71,0.14-0.71,0.7c0,0.58,0.12,0.84,0.74,0.74c0.26-0.04,0.54,0.02,0.81-0.01c0.6-0.08,0.81,0.11,0.8,0.76
		c-0.04,2.28,0.01,4.56-0.03,6.84c-0.01,0.68,0.36,0.56,0.76,0.58c0.45,0.03,0.7-0.04,0.67-0.6C154.2,10.4,154.23,9.25,154.23,8.1z
		 M110.25,7.3c0,1.44,0.01,2.88-0.01,4.33c0,0.36,0.07,0.53,0.48,0.52c1.37-0.02,2.75-0.03,4.12,0c0.7,0.02,0.44-0.46,0.47-0.78
		c0.03-0.32,0.12-0.69-0.46-0.66c-0.88,0.04-1.76-0.02-2.64,0.02c-0.46,0.02-0.61-0.1-0.6-0.59c0.03-2.37-0.01-4.73,0.03-7.1
		c0.01-0.63-0.37-0.48-0.7-0.48c-0.33,0-0.72-0.14-0.7,0.48C110.28,4.46,110.25,5.88,110.25,7.3z M118.33,6.68
		c0-1.22-0.03-2.43,0.01-3.65c0.02-0.58-0.33-0.49-0.65-0.46c-0.31,0.03-0.8-0.25-0.8,0.45c0.02,2.88,0.01,5.77,0,8.65
		c0,0.4,0.15,0.49,0.52,0.48c1.37-0.02,2.75-0.03,4.12,0c0.64,0.02,0.47-0.4,0.46-0.72c0-0.31,0.2-0.75-0.45-0.73
		c-0.9,0.04-1.8-0.02-2.7,0.02c-0.44,0.02-0.52-0.13-0.51-0.53C118.35,9.02,118.33,7.85,118.33,6.68z M51.77,7.38
		c0,1.42,0.03,2.84-0.01,4.25c-0.02,0.66,0.41,0.5,0.76,0.51c0.35,0.01,0.7,0.1,0.69-0.5c-0.03-2.86-0.03-5.72,0-8.58
		c0.01-0.61-0.34-0.51-0.69-0.5c-0.34,0.01-0.78-0.18-0.76,0.49C51.8,4.49,51.77,5.94,51.77,7.38z M73.38,7.38
		c0-1.44-0.03-2.88,0.01-4.32c0.02-0.68-0.42-0.48-0.76-0.5c-0.35-0.01-0.7-0.11-0.69,0.5c0.03,2.86,0.03,5.71,0,8.57
		c-0.01,0.6,0.34,0.52,0.69,0.51c0.34-0.01,0.77,0.16,0.75-0.51C73.35,10.21,73.38,8.8,73.38,7.38z M140.97,7.3
		c0,1.44,0.03,2.89-0.01,4.33c-0.02,0.61,0.35,0.52,0.69,0.5c0.33-0.02,0.79,0.2,0.78-0.49c-0.03-2.87-0.03-5.73,0-8.6
		c0.01-0.62-0.36-0.51-0.7-0.49c-0.33,0.02-0.79-0.22-0.77,0.48C141,4.46,140.97,5.88,140.97,7.3z M48,33.35
		C48,33.35,48,33.35,48,33.35c0.01-0.54-0.01-1.08,0.01-1.62c0.01-0.27-0.09-0.36-0.34-0.38c-0.26-0.02-0.38,0.1-0.38,0.35
		c0,0.23,0.02,0.45-0.01,0.68c-0.09,0.64,0.13,1.3-0.12,1.94c-0.21,0.52-0.58,0.68-1.12,0.66c-0.56-0.02-0.67-0.42-0.7-0.82
		c-0.05-0.76-0.03-1.53-0.04-2.29c0-0.25,0.05-0.52-0.34-0.52c-0.37,0-0.38,0.24-0.38,0.5c0,0.61,0,1.22,0.01,1.83
		c0,0.81-0.43,1.33-1.11,1.32c-0.61,0-0.89-0.39-0.89-1.25c0-0.65,0-1.31,0.01-1.96c0-0.25-0.04-0.45-0.36-0.44
		c-0.33,0.01-0.35,0.21-0.35,0.46c0.01,0.79,0.03,1.58,0.02,2.36c-0.02,1.45,1.47,1.99,2.47,1.11c0.27-0.24,0.42-0.18,0.67,0.05
		c0.45,0.43,1.01,0.48,1.57,0.24c0.27-0.11,0.47-0.21,0.8-0.04c0.27,0.14,0.71,0.15,0.6-0.48C47.92,34.49,48,33.92,48,33.35z
		 M152.04,33.58c-0.01,0-0.01,0-0.02,0c0-0.54,0.01-1.08,0-1.62c-0.01-0.25,0.1-0.58-0.33-0.6c-0.48-0.02-0.38,0.34-0.4,0.61
		c-0.03,0.72,0.1,1.44-0.07,2.15c-0.14,0.61-0.5,0.92-1.16,0.87c-0.67-0.05-0.71-0.56-0.74-1.01c-0.05-0.69-0.01-1.39-0.01-2.08
		c0-0.24,0.06-0.52-0.32-0.54c-0.41-0.02-0.4,0.26-0.4,0.55c0.01,0.63,0.03,1.26,0,1.89c-0.03,0.76-0.51,1.25-1.14,1.23
		c-0.57-0.03-0.85-0.42-0.85-1.23c0-0.68,0-1.35,0.01-2.03c0-0.28-0.1-0.42-0.39-0.41c-0.29,0.01-0.32,0.18-0.32,0.41
		c0.01,0.79,0.02,1.58,0.02,2.36c0,0.63,0.19,1.16,0.8,1.44c0.6,0.28,1.16,0.11,1.63-0.27c0.3-0.25,0.45-0.2,0.72,0.06
		c0.43,0.4,0.98,0.46,1.51,0.23c0.32-0.13,0.55-0.27,0.91-0.01c0.24,0.18,0.57,0.08,0.55-0.37
		C152.03,34.66,152.04,34.12,152.04,33.58z M164.12,33.5C164.12,33.5,164.12,33.5,164.12,33.5c0-0.56,0.01-1.13-0.01-1.69
		c-0.01-0.18,0.14-0.51-0.26-0.49c-0.31,0.01-0.54,0.1-0.52,0.52c0.04,0.72,0.03,1.44-0.01,2.16c-0.03,0.57-0.54,1.01-1.08,0.99
		c-0.64-0.03-0.82-0.46-0.83-1.01c-0.01-0.65,0.02-1.31-0.01-1.96c-0.01-0.25,0.24-0.69-0.33-0.69c-0.55,0.01-0.41,0.43-0.42,0.74
		c-0.02,0.63,0.01,1.26-0.04,1.89c-0.05,0.7-0.44,1.05-1.08,1.03c-0.57-0.02-0.83-0.34-0.84-1.07c-0.01-0.72,0-1.44,0-2.17
		c0-0.2,0.02-0.43-0.29-0.41c-0.23,0.01-0.48,0.03-0.46,0.35c0.05,0.92-0.13,1.85,0.09,2.76c0.33,1.33,1.47,1.68,2.46,0.73
		c0.27-0.25,0.35-0.18,0.53,0.03c0.48,0.55,1.08,0.6,1.72,0.32c0.28-0.13,0.5-0.16,0.81-0.03c0.33,0.14,0.66,0.11,0.58-0.46
		C164.07,34.55,164.12,34.02,164.12,33.5z M72.24,33.5C72.24,33.5,72.24,33.5,72.24,33.5c-0.01-0.59-0.02-1.17-0.01-1.76
		c0.01-0.32-0.18-0.36-0.43-0.38c-0.3-0.02-0.32,0.15-0.32,0.38c0.01,0.65,0.01,1.31,0,1.96c-0.01,0.79-0.43,1.29-1.07,1.3
		c-0.65,0.01-0.86-0.28-0.87-1.22c-0.01-0.65-0.01-1.31,0-1.96c0-0.29-0.08-0.46-0.42-0.47c-0.41-0.02-0.35,0.27-0.35,0.5
		c-0.01,0.61,0,1.22,0,1.83c0,0.3-0.05,0.57-0.21,0.84c-0.27,0.46-0.68,0.56-1.16,0.46c-0.47-0.1-0.56-0.46-0.56-0.87
		c0-0.74-0.02-1.49,0.01-2.23c0.02-0.4-0.18-0.52-0.51-0.54c-0.39-0.02-0.26,0.31-0.26,0.49c-0.02,0.7,0,1.4,0,2.1
		c-0.01,0.69,0.1,1.32,0.8,1.65c0.71,0.33,1.32,0.12,1.83-0.41c0.17-0.18,0.19-0.19,0.38,0c0.68,0.69,1.17,0.75,1.97,0.28
		c0.24-0.14,0.31-0.26,0.51,0.08c0.16,0.28,0.66,0.01,0.67-0.37C72.26,34.58,72.24,34.04,72.24,33.5z M126.45,33.01
		c0,0,0.01,0,0.01,0c0,0.38,0.03,0.77-0.01,1.15c-0.13,1.3,1.45,1.98,2.29,1.27c0.14-0.12,0.31-0.28,0.46,0.05
		c0.1,0.22,0.35,0.16,0.54,0.1c0.22-0.07,0.19-0.28,0.19-0.46c0.01-0.7-0.01-1.4,0.03-2.09c0.03-0.69,0.44-1.1,1.02-1.09
		c0.53,0,0.87,0.42,0.89,1.13c0.01,0.7,0,1.4,0,2.1c0,0.23-0.03,0.48,0.31,0.48c0.3-0.01,0.43-0.17,0.43-0.48
		c-0.01-0.79,0.04-1.58,0-2.37c-0.06-1.27-1.03-1.88-2.13-1.38c-0.24,0.11-0.4,0.32-0.71,0c-0.19-0.19-0.61-0.16-0.6,0.37
		c0.02,0.65,0.03,1.31,0,1.96c-0.04,0.8-0.49,1.28-1.11,1.27c-0.6-0.02-0.85-0.37-0.87-1.26c-0.02-0.65-0.02-1.31-0.03-1.96
		c0-0.26-0.08-0.42-0.38-0.44c-0.36-0.02-0.33,0.21-0.33,0.44C126.45,32.2,126.45,32.61,126.45,33.01z M109.87,34.91
		c0.72,0.85,1.13,0.96,2.09,0.57c0.22-0.09,0.4-0.1,0.63,0.03c0.43,0.25,0.62,0.05,0.62-0.41c0-1.08,0-2.16,0-3.24
		c0-0.24,0.07-0.5-0.34-0.5c-0.42,0-0.41,0.25-0.41,0.53c0,0.7,0.01,1.4-0.02,2.09c-0.03,0.62-0.54,1.06-1.11,1.02
		c-0.64-0.04-0.81-0.46-0.81-1.02c0-0.68,0.01-1.35-0.01-2.03c-0.01-0.23,0.16-0.58-0.31-0.59c-0.49-0.01-0.45,0.31-0.45,0.64
		c0,0.68,0.01,1.35-0.03,2.03c-0.04,0.65-0.51,1.04-1.12,0.98c-0.63-0.06-0.8-0.49-0.79-1.05c0-0.74,0-1.49,0.01-2.23
		c0-0.24-0.07-0.38-0.35-0.38c-0.27,0-0.42,0.09-0.42,0.39c0.01,0.86-0.04,1.72,0.03,2.57c0.09,1.04,0.99,1.63,1.9,1.33
		C109.34,35.51,109.58,35.21,109.87,34.91z M56.79,34.96c0.69,0.75,1.2,0.92,1.94,0.59c0.31-0.14,0.54-0.19,0.87-0.01
		c0.37,0.2,0.65-0.05,0.62-0.46c-0.07-1.05-0.28-2.1-0.11-3.17c0.03-0.17,0.22-0.59-0.27-0.59c-0.42,0-0.5,0.23-0.49,0.61
		c0.03,0.67,0.03,1.35-0.01,2.03c-0.03,0.6-0.57,1.08-1.11,1.04c-0.63-0.05-0.81-0.47-0.81-1.03c0-0.7,0.01-1.4,0-2.1
		c0-0.22,0.1-0.52-0.32-0.52c-0.39,0-0.44,0.21-0.43,0.52c0,0.65,0.01,1.31-0.02,1.96c-0.04,0.82-0.39,1.18-1.07,1.17
		c-0.61-0.01-0.86-0.34-0.86-1.18c0-0.68,0-1.35,0-2.03c0-0.24,0-0.45-0.34-0.45c-0.32,0-0.43,0.14-0.43,0.46
		c0.02,0.72-0.03,1.45,0.03,2.16c0.05,0.52,0.07,1.09,0.57,1.45C55.25,35.92,55.86,35.81,56.79,34.96z M136.59,34.92
		c0.69,0.87,1.27,0.99,2.2,0.5c0.11-0.06,0.22-0.37,0.39-0.05c0.11,0.21,0.3,0.28,0.51,0.22c0.27-0.08,0.26-0.34,0.26-0.56
		c0-1.06-0.01-2.12-0.01-3.18c0-0.32-0.06-0.52-0.44-0.51c-0.41,0.01-0.31,0.32-0.32,0.54c-0.01,0.68,0.02,1.35-0.02,2.03
		c-0.04,0.67-0.53,1.1-1.13,1.08c-0.73-0.02-0.79-0.54-0.8-1.08c-0.01-0.7-0.01-1.4,0-2.1c0-0.31-0.1-0.46-0.43-0.45
		c-0.33,0.01-0.34,0.21-0.33,0.45c0.01,0.68,0.02,1.35,0,2.03c-0.03,0.73-0.49,1.18-1.13,1.16c-0.62-0.02-0.79-0.25-0.81-1.13
		c-0.01-0.72-0.02-1.44-0.02-2.16c0-0.26-0.12-0.36-0.37-0.36c-0.24,0-0.38,0.07-0.37,0.35c0.02,0.88,0,1.76,0.04,2.64
		c0.02,0.32,0.13,0.65,0.38,0.91C134.84,35.95,135.76,35.85,136.59,34.92z M180.74,34.95c0.59,0.81,1.28,0.94,2.14,0.46
		c0.12-0.07,0.18-0.23,0.39-0.09c0.61,0.41,0.77,0.31,0.78-0.42c0.01-1.03-0.01-2.07-0.01-3.1c0-0.3-0.12-0.46-0.44-0.45
		c-0.38,0.01-0.28,0.28-0.28,0.49c-0.01,0.65,0.03,1.31-0.01,1.96c-0.05,0.78-0.54,1.25-1.17,1.22c-0.55-0.03-0.8-0.39-0.82-1.25
		c-0.01-0.65-0.02-1.31,0-1.96c0.01-0.44-0.25-0.51-0.57-0.41c-0.24,0.08-0.11,0.35-0.13,0.54c-0.09,0.84,0.18,1.7-0.22,2.53
		c-0.25,0.52-0.66,0.55-1.12,0.52c-0.46-0.03-0.59-0.35-0.61-0.75c-0.02-0.81-0.03-1.62-0.05-2.42c0-0.25-0.05-0.44-0.37-0.45
		c-0.34-0.02-0.35,0.19-0.35,0.43c0.01,0.88-0.02,1.76,0.04,2.64c0.06,1.02,1.02,1.55,1.96,1.15
		C180.22,35.43,180.45,35.18,180.74,34.95z M64.92,33.12C64.92,33.12,64.92,33.12,64.92,33.12c0-0.95-0.01-1.89,0-2.84
		c0-0.29,0.02-0.55-0.39-0.55c-0.44,0-0.36,0.3-0.36,0.56c0,1.06,0.02,2.12,0,3.18c-0.01,0.54-0.03,1.15-0.6,1.43
		c-0.81,0.38-1.48-0.08-1.51-1.01c-0.02-0.72,0-1.44,0-2.16c0-0.23-0.04-0.41-0.33-0.38c-0.24,0.02-0.38,0.11-0.37,0.37
		c0.03,0.92-0.08,1.85,0.06,2.77c0.14,0.9,0.94,1.37,1.84,1.18c0.33-0.07,0.56-0.66,0.86-0.31c0.18,0.21,0.05,0.69,0.05,1.05
		c0,0.14,0.01,0.27,0,0.41c-0.01,0.21,0.07,0.37,0.31,0.32c0.4-0.07,0.87,0.21,1.18-0.19c0.1-0.13,0.06-0.43-0.26-0.4
		c-0.46,0.04-0.5-0.22-0.49-0.58C64.93,35.01,64.92,34.07,64.92,33.12z M76.26,31.75c0-0.52,0.01-0.94,0-1.36
		c-0.01-0.27,0.07-0.63-0.38-0.66c-0.49-0.03-0.39,0.34-0.39,0.61c-0.01,1.2,0,2.39,0.01,3.59c0,0.95,0.01,1.9,0.01,2.84
		c0,0.24,0.09,0.38,0.33,0.43c0.31,0.07,0.32-0.17,0.38-0.35c0.08-0.22,0.02-0.44,0.02-0.67c0-1.12-0.15-2.26,0.07-3.37
		c0.13-0.67,0.57-0.96,1.22-0.88c0.64,0.08,0.75,0.55,0.75,1.08c0,0.7,0.01,1.4,0,2.1c-0.01,0.29,0.06,0.5,0.39,0.5
		c0.28,0,0.39-0.17,0.38-0.44c-0.01-0.86,0.02-1.72-0.03-2.57c-0.04-0.75-0.47-1.14-1.2-1.33C77.21,31.11,76.79,31.46,76.26,31.75z
		 M119.96,31.64c0-0.44,0-0.89,0-1.33c0-0.25,0.11-0.56-0.34-0.57c-0.44-0.01-0.43,0.26-0.43,0.57c0.01,2.05,0.01,4.1,0.01,6.15
		c0,0.34-0.09,0.72,0.45,0.7c0.51-0.02,0.3-0.41,0.31-0.66c0.02-1.13,0-2.25,0.02-3.38c0.01-0.69,0.43-1.16,1.01-1.19
		c0.71-0.03,0.93,0.16,1.01,1.02c0.07,0.74,0.05,1.48,0.04,2.23c0,0.28,0.09,0.44,0.37,0.44c0.27,0,0.4-0.15,0.39-0.43
		c-0.03-0.9-0.01-1.8-0.08-2.7c-0.08-0.95-0.95-1.51-1.84-1.21C120.59,31.37,120.31,31.46,119.96,31.64z M154.37,31.39
		c-1.11,0.52-1.45,1.43-1.33,2.56c0.15,1.39,1.4,2.11,2.69,1.57c1.03-0.43,1.47-1.7,1.02-2.99c-0.09-0.26-0.28-0.43,0.1-0.68
		c0.22-0.14,0.09-0.52-0.32-0.46c-0.66,0.1-1.16-0.21-1.65-0.58c-0.21-0.15-0.32-0.3-0.07-0.54c0.11-0.11,0.17-0.28,0.25-0.43
		c-0.78-0.34-1.04,0.21-1.28,0.68C153.48,31.08,154.21,30.99,154.37,31.39z M100.45,35.16c0,0.63,0.01,1.14,0,1.65
		c0,0.26,0.12,0.4,0.37,0.33c0.36-0.11,0.84,0.22,1.1-0.24c0.1-0.17-0.01-0.37-0.26-0.36c-0.53,0.03-0.5-0.33-0.5-0.67
		c0-1.85,0-3.69,0-5.54c0-0.26,0.07-0.56-0.36-0.57c-0.47-0.01-0.34,0.33-0.34,0.56c-0.01,1.15,0.01,2.3-0.01,3.45
		c-0.01,0.71-0.53,1.23-1.17,1.25c-0.59,0.01-0.94-0.41-0.95-1.21c-0.01-0.68,0-1.35,0.01-2.03c0-0.25-0.02-0.44-0.35-0.43
		c-0.29,0.01-0.39,0.16-0.39,0.42c0,0.9-0.09,1.8,0.07,2.7c0.15,0.88,0.82,1.35,1.7,1.22C99.73,35.63,100.01,35.39,100.45,35.16z
		 M105.87,34.32C105.87,34.32,105.87,34.32,105.87,34.32c0-0.81,0-1.62,0.01-2.43c0-0.3-0.03-0.53-0.43-0.51
		c-0.38,0.01-0.36,0.26-0.36,0.51c0,0.7,0.02,1.4-0.01,2.1c-0.02,0.61-0.6,1.22-1.16,1.16c-0.56-0.06-0.8-0.49-0.85-1.03
		c-0.02-0.25-0.03-0.49-0.03-0.74c0-1.06-0.01-2.12,0-3.18c0-0.24-0.02-0.45-0.35-0.45c-0.3,0-0.39,0.14-0.38,0.42
		c0.02,1.42,0,2.84,0.06,4.26c0.04,0.95,1,1.51,1.91,1.22c0.28-0.09,0.47-0.59,0.75-0.31c0.16,0.16,0.05,0.6,0.05,0.92
		c0,0.14,0,0.27,0,0.41c0.01,0.24-0.07,0.5,0.35,0.49c0.38-0.01,0.44-0.2,0.43-0.51C105.86,35.85,105.87,35.08,105.87,34.32z
		 M80.83,32.06C80.82,32.06,80.82,32.06,80.83,32.06c-0.01-0.43-0.03-0.86,0-1.29c0.07-1.27,0.06-0.99-1.09-1.05
		c-0.02,0-0.05,0-0.07,0c-0.2-0.01-0.36,0.03-0.36,0.28c0,0.22,0.09,0.34,0.32,0.33c0.45-0.01,0.49,0.28,0.49,0.63
		c-0.01,1.01,0.06,2.03,0,3.04c-0.09,1.47,1.3,2.14,2.44,1.35c0.17-0.12,0.25-0.24,0.38,0.05c0.09,0.2,0.31,0.24,0.53,0.16
		c0.22-0.08,0.21-0.26,0.21-0.44c0-1.1-0.01-2.21,0-3.31c0-0.29-0.07-0.46-0.41-0.47c-0.39-0.01-0.37,0.23-0.37,0.48
		c0,0.68,0.02,1.35-0.01,2.03c-0.03,0.69-0.53,1.16-1.16,1.14c-0.61-0.02-0.89-0.38-0.89-1.18C80.83,33.23,80.83,32.65,80.83,32.06z
		 M176.53,37.12c-0.05-0.41-0.23-0.63-0.69-0.59c-0.38,0.03-0.76,0-1.15,0c-0.37,0-0.37-0.21-0.22-0.44
		c0.14-0.2,0.34-0.36,0.52-0.52c0.62-0.54,1.26-1.07,1.67-1.81c0.41-0.74,0.29-1.66-0.31-2.14c-0.71-0.57-1.81-0.51-2.46,0.13
		c-0.5,0.49-0.46,1.05,0.15,1.91c0.52,0.73,0.51,1.24-0.03,1.94c-0.11,0.14-0.23,0.28-0.31,0.44c-0.31,0.59-0.08,1.04,0.58,1.07
		C175.03,37.14,175.77,37.12,176.53,37.12z M185.98,32.02c-0.01,0-0.02,0-0.03,0c0-0.56-0.03-1.13,0.01-1.69
		c0.03-0.44-0.11-0.63-0.57-0.59c-0.2,0.02-0.41-0.01-0.61,0c-0.18,0.01-0.36,0.02-0.36,0.29c0,0.23,0.09,0.35,0.31,0.32
		c0.47-0.07,0.49,0.22,0.49,0.57c-0.01,1.1-0.02,2.21,0.01,3.31c0.03,1.17,1.06,1.82,2.13,1.33c0.29-0.13,0.51-0.19,0.81-0.03
		c0.43,0.23,0.59,0.04,0.58-0.43c-0.02-1.04,0-2.07-0.01-3.11c0-0.25,0.16-0.63-0.35-0.63c-0.52,0-0.4,0.38-0.41,0.68
		c-0.01,0.65,0.01,1.31-0.02,1.96c-0.03,0.57-0.51,1.01-1.06,1.03c-0.58,0.02-0.89-0.27-0.94-0.97
		C185.94,33.37,185.98,32.69,185.98,32.02z M169.05,34.22c0,0-0.01,0-0.01,0c0,0.79,0.01,1.58-0.01,2.36
		c-0.01,0.35,0.07,0.56,0.47,0.55c0.42-0.01,0.3-0.32,0.3-0.53c0.01-1.17-0.01-2.34,0.01-3.51c0.01-0.7,0.44-1.12,1.04-1.17
		c0.74-0.06,0.95,0.42,0.99,1c0.06,0.74,0.04,1.48,0.04,2.22c0,0.25,0.01,0.46,0.32,0.48c0.29,0.02,0.4-0.16,0.39-0.42
		c-0.02-0.85-0.07-1.71-0.04-2.56c0.04-1.21-1.26-1.8-2.34-1.15c-0.23,0.14-0.29,0.28-0.52-0.05c-0.19-0.28-0.65-0.03-0.66,0.35
		C169.04,32.6,169.05,33.41,169.05,34.22z M141.16,34.24C141.15,34.24,141.15,34.24,141.16,34.24c-0.01,0.79,0.01,1.58-0.01,2.36
		c-0.01,0.35,0.07,0.56,0.46,0.57c0.51,0.02,0.29-0.37,0.3-0.57c0.02-1.15,0-2.3,0.02-3.45c0.01-0.76,0.47-1.24,1.13-1.24
		c0.65,0,0.92,0.34,0.94,1.2c0.01,0.7,0,1.4-0.01,2.09c0,0.26,0.11,0.37,0.36,0.37c0.24,0,0.38-0.08,0.38-0.35
		c-0.01-0.83,0.03-1.67-0.04-2.5c-0.1-1.32-1.19-1.87-2.36-1.24c-0.19,0.1-0.29,0.36-0.46-0.04c-0.07-0.17-0.37-0.1-0.56-0.05
		c-0.21,0.06-0.14,0.26-0.14,0.4C141.15,32.62,141.16,33.43,141.16,34.24z M49.29,34.29c0,0.77-0.01,1.53,0.01,2.3
		c0.01,0.22-0.18,0.56,0.32,0.57c0.47,0.01,0.42-0.28,0.42-0.57c0.01-1.19-0.01-2.39,0.03-3.58c0.03-0.75,0.44-1.08,1.18-1.07
		c0.73,0.01,0.8,0.53,0.81,1.07c0.02,0.7,0.02,1.4,0.01,2.1c-0.01,0.3,0.07,0.48,0.4,0.49c0.38,0.01,0.36-0.25,0.35-0.51
		c-0.01-0.74,0.01-1.49-0.02-2.23c-0.05-1.39-1.11-2.01-2.33-1.37c-0.2,0.11-0.29,0.22-0.55,0c-0.36-0.31-0.64-0.11-0.64,0.38
		C49.28,32.67,49.29,33.48,49.29,34.29z M36.26,33.87c0.04,0.39,0.42,0.61,0.87,0.75c1.03,0.32,2.05,0.63,3.08,0.94
		c0.22,0.07,0.5,0.38,0.66-0.04c0.13-0.35-0.03-0.58-0.41-0.69c-0.88-0.27-1.75-0.57-2.61-0.88c-0.21-0.08-0.57,0.02-0.59-0.33
		c-0.02-0.3,0.29-0.44,0.5-0.59c0.79-0.56,1.62-1.03,2.53-1.38c0.18-0.07,0.65-0.08,0.45-0.48c-0.2-0.39-0.48-0.76-0.79-1.09
		c-0.19-0.21-0.55-0.22-0.76-0.07c-0.28,0.2,0.04,0.42,0.16,0.54c0.41,0.43,0.21,0.64-0.21,0.84c-0.91,0.43-1.78,0.94-2.52,1.64
		C36.41,33.21,36.25,33.42,36.26,33.87z M166.44,37.14C166.44,37.14,166.44,37.13,166.44,37.14c0.38-0.01,0.77-0.01,1.15-0.01
		c0.17,0,0.3-0.04,0.31-0.26c0.01-0.23-0.09-0.33-0.31-0.33c-0.45,0-0.9,0.01-1.35,0c-0.19,0-0.43,0.09-0.55-0.14
		c-0.12-0.26,0.09-0.42,0.25-0.57c0.5-0.51,1.1-0.93,1.53-1.51c0.42-0.58,0.85-1.17,0.55-1.97c-0.35-0.95-2.11-1.5-2.93-0.9
		c-0.19,0.14-0.14,0.32-0.11,0.49c0.04,0.26,0.2,0.15,0.35,0.09c0.32-0.13,0.67-0.11,1-0.1c0.81,0.03,1.2,0.71,0.87,1.46
		c-0.23,0.53-0.64,0.91-1.04,1.3c-0.41,0.41-0.82,0.82-1.19,1.26c-0.18,0.21-0.35,0.49-0.19,0.81c0.17,0.32,0.45,0.41,0.79,0.39
		C165.85,37.13,166.15,37.14,166.44,37.14z M92.89,33.44c0,0.54,0,1.08,0,1.62c0,0.27-0.06,0.57,0.37,0.56
		c0.37-0.01,0.42-0.25,0.42-0.55c0-0.7-0.01-1.4,0.01-2.09c0.02-0.64,0.46-1.05,1.06-1.06c0.67,0,0.89,0.22,0.92,1.03
		c0.03,0.74,0.01,1.49,0.01,2.23c0,0.27,0.1,0.44,0.39,0.43c0.29-0.01,0.36-0.18,0.36-0.45c-0.02-0.72,0-1.44-0.01-2.16
		c-0.01-1.59-1-2.2-2.4-1.46c-0.19,0.1-0.24,0.18-0.39-0.05c-0.13-0.2-0.42-0.16-0.62-0.08c-0.2,0.08-0.11,0.32-0.11,0.49
		C92.89,32.4,92.89,32.92,92.89,33.44z M117.95,33.46C117.95,33.46,117.95,33.46,117.95,33.46c0-0.52,0-1.03,0-1.55
		c0-0.27,0.03-0.56-0.38-0.57c-0.41,0-0.31,0.3-0.31,0.53c-0.01,0.65,0.02,1.31-0.03,1.96c-0.06,0.77-0.54,1.2-1.19,1.18
		c-0.54-0.02-0.85-0.42-0.87-1.22c-0.02-0.7-0.01-1.39-0.01-2.09c0-0.18-0.01-0.42-0.25-0.39c-0.19,0.02-0.48,0.03-0.47,0.37
		c0.04,1.05-0.1,2.11,0.14,3.16c0.06,0.27,0.23,0.42,0.48,0.57c0.67,0.42,1.29,0.33,1.9-0.07c0.2-0.13,0.24-0.13,0.31,0.08
		c0.08,0.22,0.29,0.2,0.46,0.16c0.22-0.05,0.24-0.24,0.24-0.43C117.95,34.59,117.95,34.03,117.95,33.46z M74.2,33.86
		c0.01,0,0.01,0,0.02,0c0-0.65,0.01-1.31-0.01-1.96c-0.01-0.21,0.14-0.54-0.29-0.55c-0.42-0.02-0.46,0.23-0.45,0.57
		c0.02,1.17,0.03,2.35,0.01,3.52c-0.01,0.47,0.09,1.05-0.64,1.12c-0.22,0.02-0.23,0.18-0.22,0.35c0.01,0.23,0.2,0.23,0.34,0.25
		c0.67,0.09,1.2-0.38,1.23-1.12C74.23,35.3,74.2,34.58,74.2,33.86z M106.7,2.05c0.55-0.02,0.82-0.3,0.87-0.79
		c0.04-0.47-0.35-0.87-0.83-0.87c-0.47,0-0.88,0.39-0.84,0.86C105.94,1.74,106.22,2.02,106.7,2.05z M103.87,0.38
		c-0.47,0.07-0.8,0.29-0.82,0.81c-0.02,0.5,0.33,0.86,0.82,0.86c0.49,0,0.85-0.37,0.82-0.87C104.67,0.68,104.36,0.44,103.87,0.38z"
		/>
	<path class="st1" d="M17.06,7.15c0-1.49,0.01-2.97,0-4.46c0-0.36,0.04-0.58,0.5-0.57c1.53,0.03,3.06,0.02,4.59,0
		c0.45-0.01,0.57,0.15,0.56,0.59c-0.01,3-0.01,5.99,0.01,8.99c0,0.45-0.15,0.58-0.59,0.57c-1.55-0.03-3.11-0.05-4.66-0.03
		c-0.44,0.01-0.41-0.22-0.41-0.5C17.07,10.22,17.07,8.69,17.06,7.15C17.07,7.15,17.06,7.15,17.06,7.15z"/>
	<path class="st2" d="M24.08,7.17c0-1.53,0.02-3.07-0.02-4.6c-0.01-0.38,0.15-0.41,0.42-0.41c1.53,0,3.07,0.01,4.6,0
		c0.36,0,0.45,0.15,0.45,0.49c-0.01,3.02-0.01,6.04,0.01,9.06c0,0.41-0.18,0.48-0.54,0.48c-1.47-0.01-2.93-0.01-4.4,0
		c-0.42,0-0.56-0.08-0.54-0.57C24.12,10.15,24.09,8.66,24.08,7.17C24.09,7.17,24.09,7.17,24.08,7.17z"/>
	<path class="st3" d="M71.23,24.32c-0.01-0.07,0-0.1-0.01-0.11c-0.93-0.96-0.93-1,0.11-1.9c0.29-0.25,0.53-0.34,0.74,0.08
		c0.08,0.16,0.21,0.38,0.38,0.33c0.26-0.06,0.15-0.34,0.15-0.52c0.01-1.33,0.02-2.66-0.01-3.99c-0.01-0.45,0.09-0.63,0.59-0.63
		c1.34,0,1.34-0.02,1.34,1.31c0.01,1.67,0.08,3.34-0.08,5c-0.01,0.14-0.03,0.33,0.08,0.37c0.51,0.18,0.25,0.51,0.13,0.75
		c-0.18,0.36-0.12,0.89-0.5,1.07c-0.36,0.17-0.67-0.25-1.01-0.38c-0.33-0.12-0.61,0.03-0.91,0.12c-1.13,0.34-3.27,0.1-4.08-1.19
		c-0.43-0.69-0.52-1.44-0.54-2.19c-0.03-1.44,0.01-2.89-0.01-4.33c-0.01-0.42,0.15-0.55,0.55-0.54c1.7,0.06,1.39-0.24,1.42,1.36
		c0.02,1.33,0,2.66,0.04,3.99C69.63,23.86,70.26,24.37,71.23,24.32z"/>
	<path class="st4" d="M167.15,6.28c0,1.76-0.04,3.51,0.02,5.27c0.02,0.66-0.32,0.58-0.74,0.6c-0.49,0.03-0.71-0.06-0.7-0.64
		c0.04-2.77,0.01-5.54,0.03-8.32c0-0.21-0.17-0.58,0.19-0.61c0.38-0.03,0.84-0.23,1.13,0.3c0.93,1.7,1.9,3.37,2.85,5.06
		c0.1,0.18,0.21,0.37,0.44,0.51c0-1.75,0.03-3.49-0.02-5.24c-0.02-0.61,0.21-0.69,0.73-0.68c0.5,0.01,0.76,0.04,0.75,0.67
		c-0.04,2.75-0.01,5.5-0.03,8.25c0,0.23,0.19,0.63-0.23,0.66c-0.39,0.03-0.83,0.21-1.12-0.32c-0.91-1.66-1.85-3.3-2.78-4.94
		c-0.12-0.21-0.24-0.41-0.36-0.62C167.26,6.25,167.2,6.27,167.15,6.28z"/>
	<path class="st4" d="M97.08,12.14c-0.45,0-0.9-0.02-1.35,0.01c-0.37,0.02-0.45-0.13-0.45-0.47c0.01-2.88,0.01-5.76,0-8.65
		c0-0.39,0.12-0.5,0.5-0.48c0.74,0.03,1.49-0.02,2.23,0.02c2.14,0.1,3.35,2.45,2.19,4.25c-0.19,0.29-0.17,0.42,0.06,0.65
		c0.87,0.85,1.01,1.9,0.57,2.98c-0.45,1.1-1.35,1.65-2.54,1.69C97.89,12.15,97.48,12.14,97.08,12.14z M96.7,9.37
		c0,1.36,0,1.36,1.38,1.35c0.14,0,0.27,0,0.41-0.01c0.53-0.04,0.88-0.32,1.07-0.8c0.39-0.96-0.19-1.78-1.29-1.84
		C96.7,7.97,96.7,7.97,96.7,9.37z M96.69,5.3c0,1.41,0,1.41,1.18,1.34c0.8-0.04,1.4-0.65,1.37-1.38c-0.04-0.87-0.7-1.28-1.94-1.3
		c-1.09-0.02-0.42,0.79-0.6,1.2C96.68,5.2,96.69,5.25,96.69,5.3z"/>
	<path class="st4" d="M57.01,6.19c0,1.75-0.02,3.51,0.01,5.26c0.01,0.55-0.12,0.73-0.69,0.72c-0.52-0.01-0.74-0.07-0.73-0.68
		c0.04-2.75,0.01-5.5,0.03-8.26c0-0.22-0.21-0.62,0.22-0.64c0.38-0.02,0.82-0.19,1.11,0.35c0.67,1.28,1.4,2.52,2.11,3.77
		c0.35,0.62,0.71,1.24,1.18,1.85c0-0.66,0-1.32,0-1.98c0-1.08,0.05-2.17-0.02-3.25c-0.04-0.69,0.2-0.81,0.82-0.79
		c0.5,0.02,0.58,0.18,0.57,0.62c-0.02,2.75,0,5.5-0.02,8.26c0,0.24,0.23,0.66-0.23,0.71c-0.42,0.05-0.85,0.12-1.14-0.43
		c-0.92-1.73-1.91-3.42-2.87-5.13c-0.08-0.14-0.16-0.27-0.24-0.4C57.09,6.17,57.05,6.18,57.01,6.19z"/>
	<path class="st4" d="M174.92,7.35c0,0.61-0.01,1.22,0,1.83c0.02,0.97,0.62,1.62,1.5,1.67c0.9,0.05,1.54-0.51,1.7-1.47
		c0.01-0.07,0.02-0.13,0.03-0.2c0.1-1.11,0.1-1.11-1.01-1.12c-0.71,0-1.09-0.61-0.78-1.26c0.09-0.2,0.26-0.15,0.4-0.15
		c0.79-0.01,1.58,0.01,2.37-0.01c0.34-0.01,0.42,0.13,0.41,0.44c-0.02,0.81,0.03,1.62-0.01,2.43c-0.07,1.46-1.34,2.67-2.83,2.78
		c-1.44,0.1-2.9-0.95-3.1-2.37c-0.23-1.7-0.23-3.42,0-5.12c0.21-1.47,1.65-2.46,3.17-2.35c1.42,0.1,2.65,1.3,2.75,2.71
		c0.02,0.22,0.17,0.65-0.28,0.58c-0.38-0.05-0.97,0.38-1.13-0.41c-0.2-1-0.87-1.56-1.69-1.49c-0.91,0.08-1.49,0.79-1.5,1.83
		C174.91,6.23,174.92,6.79,174.92,7.35z"/>
	<path class="st4" d="M64.06,7.31c0-1.42,0.01-2.84-0.01-4.26c-0.01-0.38,0.1-0.51,0.49-0.5c0.81,0.03,1.62-0.01,2.44,0.01
		c1.26,0.03,2.35,0.9,2.62,2.06c0.29,1.23-0.19,2.46-1.32,3.05c-0.48,0.25-0.4,0.43-0.2,0.79c0.57,1.07,1.11,2.16,1.68,3.24
		c0.15,0.29,0.18,0.42-0.23,0.45c-1.09,0.06-1.09,0.08-1.59-0.9c-0.44-0.89-0.92-1.76-1.32-2.66c-0.2-0.46-0.5-0.62-0.95-0.51
		c-0.44,0.11-0.22,0.49-0.22,0.74c-0.03,0.95-0.05,1.9,0,2.84c0.03,0.62-0.37,0.49-0.7,0.49c-0.34,0-0.71,0.11-0.7-0.5
		C64.09,10.2,64.06,8.75,64.06,7.31z M65.43,5.26c0,1.4,0,1.4,1.35,1.38c0.9-0.01,1.47-0.52,1.47-1.31c0.01-0.84-0.55-1.34-1.5-1.36
		C65.43,3.95,65.43,3.95,65.43,5.26z"/>
	<path class="st4" d="M83.15,7.34c0-1.42,0.03-2.84-0.02-4.26c-0.02-0.67,0.39-0.49,0.74-0.52c0.38-0.02,0.69-0.06,0.66,0.52
		c-0.05,1.04,0,2.08-0.02,3.11c-0.01,0.35,0.09,0.47,0.45,0.46c0.65-0.03,1.31-0.03,1.96,0c0.39,0.02,0.43-0.15,0.43-0.47
		c-0.02-1.01,0.03-2.03-0.02-3.05c-0.03-0.59,0.26-0.61,0.69-0.58c0.37,0.03,0.8-0.17,0.79,0.54c-0.04,2.84-0.04,5.69,0,8.53
		c0.01,0.67-0.4,0.5-0.75,0.51c-0.37,0.01-0.76,0.1-0.72-0.54c0.05-1.01,0-2.03,0.02-3.05c0.01-0.37-0.07-0.53-0.48-0.5
		c-0.63,0.04-1.26,0.02-1.89,0c-0.35-0.01-0.47,0.12-0.46,0.47c0.02,0.99-0.03,1.99,0.02,2.98c0.03,0.55-0.17,0.66-0.68,0.66
		c-0.54,0-0.74-0.11-0.72-0.7C83.19,10.09,83.15,8.71,83.15,7.34z"/>
	<path class="st3" d="M36.62,20.65c0-0.93,0.01-1.66,0-2.38c-0.01-0.45,0.11-0.69,0.65-0.69c1.36,0.01,1.37-0.02,1.31,1.33
		c-0.02,0.51,0.12,0.74,0.68,0.72c1.06-0.04,2.12,0,3.18-0.03c0.45-0.02,0.71,0.08,0.63,0.58c-0.06,0.38,0.27,0.95-0.56,0.91
		c-1.13-0.05-2.25,0-3.38-0.02c-0.38-0.01-0.55,0.14-0.54,0.51c0.02,0.58,0.03,1.17,0.09,1.75c0.06,0.57,0.39,0.95,0.98,1.02
		c0.64,0.07,1.08-0.21,1.27-0.84c0.02-0.06,0.04-0.13,0.05-0.2c0.25-0.97,0.25-0.92,1.31-0.96c0.67-0.02,0.79,0.22,0.71,0.82
		c-0.33,2.56-2.24,3.06-4.17,2.68c-1.3-0.26-1.91-1.12-2.11-2.38C36.57,22.46,36.66,21.45,36.62,20.65z"/>
	<path class="st3" d="M51.74,20.54c0-0.81,0.01-1.62,0-2.44c-0.01-0.37,0.13-0.51,0.51-0.52c1.4-0.06,1.42-0.07,1.42,1.38
		c0,0.5,0.18,0.68,0.67,0.67c1.08-0.03,2.17,0.01,3.25-0.03c0.48-0.02,0.68,0.13,0.62,0.61c-0.04,0.4,0.2,0.93-0.6,0.89
		c-1.1-0.06-2.21,0-3.32-0.02c-0.47-0.01-0.66,0.16-0.63,0.62c0.04,0.63-0.04,1.26,0.17,1.88c0.21,0.61,0.66,0.84,1.26,0.77
		c0.55-0.07,0.87-0.38,0.98-0.95c0.06-0.33-0.09-0.8,0.29-0.97c0.48-0.21,1.02-0.05,1.53-0.04c0.22,0,0.23,0.21,0.23,0.41
		c-0.11,2.77-2.03,3.52-4.21,3.04c-1.77-0.39-2.06-1.67-2.16-2.93C51.7,22.13,51.75,21.33,51.74,20.54
		C51.75,20.54,51.75,20.54,51.74,20.54z"/>
	<path class="st4" d="M108.39,7.36c0,0.65,0.01,1.31,0,1.96c-0.04,1.62-1.3,2.89-2.92,2.96c-1.57,0.07-3-1.17-3.08-2.78
		c-0.07-1.44-0.07-2.88,0-4.32c0.08-1.6,1.49-2.8,3.1-2.75c1.58,0.05,2.84,1.31,2.89,2.9C108.4,6.01,108.38,6.69,108.39,7.36
		C108.38,7.36,108.38,7.36,108.39,7.36z M106.98,7.39c0-0.65,0.02-1.31,0-1.96c-0.03-0.91-0.73-1.6-1.59-1.61
		c-0.85,0-1.6,0.7-1.62,1.59c-0.02,1.28-0.02,2.57,0,3.85c0.02,0.92,0.71,1.58,1.59,1.59c0.88,0.01,1.57-0.65,1.61-1.57
		C107,8.66,106.98,8.02,106.98,7.39z"/>
	<path class="st4" d="M36.55,7.35c0-1.38,0.02-2.75-0.01-4.13c-0.01-0.5,0.09-0.72,0.65-0.68c0.47,0.03,0.79,0,0.75,0.65
		c-0.06,0.99,0,1.98-0.03,2.98c-0.01,0.39,0.12,0.5,0.49,0.48c0.63-0.03,1.26-0.03,1.89,0c0.36,0.02,0.46-0.11,0.45-0.46
		c-0.02-1.06,0.02-2.12-0.02-3.18c-0.02-0.59,0.36-0.47,0.66-0.44c0.29,0.03,0.75-0.24,0.75,0.42c-0.02,2.89-0.02,5.78,0,8.66
		c0.01,0.62-0.36,0.49-0.7,0.49c-0.33-0.01-0.74,0.16-0.72-0.47c0.04-1.04,0-2.08,0.02-3.11c0.01-0.39-0.12-0.52-0.5-0.5
		c-0.63,0.02-1.26,0.03-1.89,0c-0.37-0.02-0.45,0.12-0.45,0.46c0.02,1.06-0.02,2.12,0.02,3.18c0.02,0.59-0.36,0.46-0.66,0.45
		c-0.31-0.01-0.74,0.19-0.73-0.46C36.57,10.24,36.55,8.79,36.55,7.35z"/>
	<path class="st4" d="M44.69,7.36c0-1.42,0.01-2.84-0.01-4.26c0-0.37,0.04-0.57,0.5-0.55c1.38,0.03,2.75,0.04,4.13,0
		c0.69-0.02,0.46,0.43,0.49,0.77c0.03,0.37,0.07,0.71-0.51,0.67c-0.9-0.05-1.8,0-2.71-0.02c-0.36-0.01-0.48,0.12-0.47,0.47
		c0.02,0.61,0.02,1.22,0,1.83c-0.01,0.3,0.09,0.39,0.38,0.39c0.65-0.02,1.31,0.04,1.96-0.02c0.73-0.06,0.49,0.45,0.53,0.8
		c0.06,0.42-0.03,0.68-0.56,0.64c-0.61-0.05-1.22,0.01-1.83-0.02c-0.4-0.02-0.51,0.13-0.49,0.51c0.04,0.69-0.22,1.58,0.13,2.03
		c0.33,0.43,1.27,0.09,1.94,0.13c0.31,0.02,0.64,0.04,0.95,0c0.58-0.08,0.68,0.18,0.7,0.71c0.02,0.61-0.16,0.76-0.75,0.74
		c-1.28-0.05-2.57-0.03-3.86-0.01c-0.41,0.01-0.54-0.11-0.53-0.53C44.7,10.2,44.69,8.78,44.69,7.36z"/>
	<path class="st4" d="M157.99,6.15c0-0.95,0.02-1.9-0.01-2.84c-0.02-0.53,0.03-0.81,0.7-0.78c0.59,0.02,0.75,0.15,0.73,0.75
		c-0.04,1.92-0.02,3.83-0.01,5.75c0,1.12,0.65,1.83,1.64,1.82c0.95-0.01,1.58-0.72,1.58-1.8c0.01-1.96,0.03-3.93-0.02-5.89
		c-0.02-0.63,0.28-0.6,0.73-0.62c0.48-0.01,0.71,0.05,0.7,0.64c-0.04,2.01-0.01,4.01-0.02,6.02c-0.01,1.73-1.26,3.04-2.94,3.08
		c-1.67,0.05-3.03-1.27-3.08-3.02C157.97,8.23,157.99,7.19,157.99,6.15z"/>
	<path class="st4" d="M129.7,2.43c1.07,0.01,1.89,0.51,2.55,1.31c0.2,0.25,0.21,0.38-0.11,0.55c-0.5,0.26-0.88,0.55-1.42-0.07
		c-0.48-0.54-1.23-0.5-1.89-0.18c-0.56,0.28-0.73,0.88-0.43,1.43c0.2,0.37,0.54,0.6,0.9,0.79c0.56,0.29,1.13,0.55,1.69,0.85
		c1.48,0.81,2.03,2.36,1.3,3.71c-0.72,1.34-2.52,1.85-3.94,1.12c-0.71-0.37-1.19-0.95-1.6-1.61c-0.19-0.3-0.13-0.44,0.16-0.64
		c0.5-0.33,0.87-0.52,1.23,0.21c0.34,0.69,0.99,1.03,1.8,0.93c0.56-0.06,0.99-0.31,1.18-0.86c0.2-0.58-0.07-1.02-0.49-1.37
		c-0.24-0.2-0.53-0.35-0.8-0.49c-0.48-0.25-0.98-0.46-1.45-0.73c-1.23-0.69-1.8-1.92-1.47-3.12C127.22,3.17,128.34,2.43,129.7,2.43z
		"/>
	<path class="st3" d="M65.48,21.02c0,0.88,0.04,1.76-0.01,2.63c-0.03,0.56,0.14,0.77,0.71,0.71c0.23-0.02,0.6-0.14,0.68,0.1
		c0.11,0.35,0.07,0.76,0.06,1.14c-0.01,0.17-0.2,0.14-0.33,0.14c-0.88,0.01-1.76,0.01-2.63,0.04c-0.32,0.01-0.4-0.13-0.43-0.44
		c-0.05-0.51,0.27-1.18-0.15-1.47c-0.33-0.23-0.95-0.03-1.44-0.03c-1.95-0.03-2.76-1.38-2.85-3.14c0-0.07-0.02-0.17,0.01-0.2
		c0.46-0.41,1.01-0.12,1.51-0.2c0.3-0.05,0.4,0.11,0.43,0.38c0.03,0.24,0.07,0.49,0.12,0.73c0.13,0.65,0.56,0.85,1.18,0.84
		c0.62-0.01,0.96-0.31,1.08-0.89c0.21-1,0.08-2.02,0.08-3.03c0-0.54,0.12-0.75,0.7-0.74c1.29,0.03,1.29,0,1.29,1.28
		C65.48,19.57,65.48,20.3,65.48,21.02z"/>
	<path class="st3" d="M79,20.55c0.07,0.77-0.1,1.7,0.03,2.62c0.11,0.75,0.44,1.15,1.04,1.19c0.71,0.04,1.14-0.32,1.33-1.06
		c0.07-0.29-0.13-0.72,0.22-0.86c0.51-0.2,1.07-0.07,1.6-0.02c0.26,0.02,0.17,0.34,0.16,0.52c-0.17,2.31-1.58,3.31-3.88,2.95
		c-1.71-0.27-2.36-1.12-2.46-2.92c-0.05-1.03-0.05-2.07-0.01-3.11c0.02-0.63-0.15-0.92-0.82-0.87c-0.2,0.02-0.57,0.19-0.64-0.14
		c-0.08-0.36-0.04-0.76,0-1.14c0.01-0.13,0.23-0.1,0.36-0.1c0.86,0,1.71,0.02,2.57-0.01c0.4-0.01,0.49,0.15,0.48,0.52
		C78.98,18.87,79,19.64,79,20.55z"/>
	<path class="st4" d="M75.66,7.35c0-0.79-0.04-1.58,0.01-2.37c0.09-1.53,1.39-2.65,2.93-2.54c1.48,0.1,2.6,1.4,2.55,2.89
		c-0.01,0.39-0.19,0.5-0.49,0.41c-0.31-0.09-0.85,0.35-0.92-0.4c-0.08-0.98-0.61-1.54-1.38-1.51c-0.79,0.02-1.31,0.67-1.31,1.65
		c0,1.26-0.01,2.53,0,3.79c0,0.96,0.49,1.56,1.28,1.6c0.8,0.04,1.36-0.51,1.4-1.47c0.04-0.81,0.62-0.35,0.94-0.44
		c0.41-0.11,0.46,0.15,0.46,0.5c0.01,1.53-1.16,2.77-2.69,2.83c-1.43,0.05-2.71-1.11-2.79-2.57C75.63,8.93,75.66,8.14,75.66,7.35z"
		/>
	<path class="st3" d="M44.44,22.65c0.1-0.96-0.12-2.02,0.16-3.08c0.47-1.75,1.59-2.12,3-2.16c1.94-0.06,2.95,0.88,3.23,2.8
		c0.07,0.48,0.05,0.88-0.61,0.79c-0.13-0.02-0.27,0-0.4,0.02c-0.61,0.1-0.92-0.05-0.99-0.77c-0.09-1.05-0.96-1.51-1.81-1.05
		c-0.55,0.3-0.61,0.86-0.62,1.4c-0.02,1.51-0.02,3.02,0.01,4.53c0.01,0.5-0.13,0.67-0.64,0.66c-1.36-0.02-1.36,0.01-1.34-1.37
		C44.44,23.86,44.44,23.3,44.44,22.65z"/>
	<path class="st4" d="M144.52,7.31c0-1.42,0.01-2.84-0.01-4.26c-0.01-0.38,0.1-0.51,0.49-0.5c1.37,0.02,2.75,0.04,4.12,0
		c0.69-0.02,0.46,0.44,0.48,0.77c0.02,0.35,0.11,0.71-0.5,0.68c-0.9-0.05-1.8,0-2.7-0.02c-0.34-0.01-0.49,0.08-0.47,0.45
		c0.04,0.72-0.23,1.63,0.12,2.09c0.33,0.43,1.31,0.08,1.99,0.14c0.25,0.02,0.63-0.15,0.71,0.16c0.1,0.35,0.05,0.76-0.01,1.14
		c-0.02,0.17-0.27,0.11-0.42,0.11c-0.61,0.01-1.22,0.04-1.82-0.01c-0.5-0.04-0.6,0.16-0.59,0.61c0.03,0.99-0.02,1.98,0.02,2.97
		c0.03,0.67-0.41,0.5-0.76,0.51c-0.35,0.01-0.71,0.11-0.69-0.5C144.55,10.19,144.52,8.75,144.52,7.31z"/>
	<path class="st4" d="M135.69,8c0-1.17-0.02-2.35,0.01-3.52c0.01-0.43-0.13-0.55-0.54-0.51c-0.31,0.03-0.63,0.01-0.95,0.01
		c-0.78,0-1.08-0.45-0.83-1.22c0.07-0.22,0.22-0.19,0.37-0.19c1.76,0,3.52,0.01,5.28,0c0.57,0,0.39,0.41,0.37,0.67
		c-0.02,0.27,0.26,0.74-0.35,0.75c-0.45,0.01-0.91,0.03-1.35-0.01c-0.5-0.05-0.66,0.11-0.65,0.63c0.03,2.3-0.01,4.6,0.03,6.91
		c0.01,0.65-0.29,0.64-0.77,0.66c-0.51,0.02-0.66-0.13-0.64-0.64C135.72,10.35,135.69,9.17,135.69,8z"/>
	<path class="st4" d="M154.23,8.1c0,1.15-0.03,2.3,0.01,3.45c0.02,0.56-0.22,0.63-0.67,0.6c-0.4-0.02-0.77,0.09-0.76-0.58
		c0.05-2.28-0.01-4.56,0.03-6.84c0.01-0.65-0.2-0.84-0.8-0.76c-0.27,0.04-0.55-0.03-0.81,0.01c-0.62,0.1-0.74-0.15-0.74-0.74
		c0-0.56,0.15-0.72,0.71-0.7c1.6,0.04,3.2,0.04,4.81,0c0.58-0.02,0.55,0.29,0.52,0.66c-0.03,0.36,0.19,0.88-0.53,0.77
		c-0.04-0.01-0.09,0-0.14,0c-0.53,0.05-1.26-0.24-1.54,0.12c-0.27,0.34-0.09,1.03-0.1,1.57c-0.01,0.68,0,1.35,0,2.03
		C154.23,7.83,154.23,7.96,154.23,8.1C154.23,8.1,154.23,8.1,154.23,8.1z"/>
	<path class="st4" d="M110.25,7.3c0-1.42,0.03-2.84-0.01-4.26c-0.02-0.63,0.37-0.49,0.7-0.48c0.33,0,0.71-0.15,0.7,0.48
		c-0.03,2.37,0,4.73-0.03,7.1c-0.01,0.48,0.14,0.61,0.6,0.59c0.88-0.04,1.76,0.02,2.64-0.02c0.57-0.02,0.48,0.34,0.46,0.66
		c-0.03,0.32,0.23,0.8-0.47,0.78c-1.37-0.03-2.75-0.02-4.12,0c-0.41,0.01-0.48-0.16-0.48-0.52C110.26,10.19,110.25,8.75,110.25,7.3z
		"/>
	<path class="st4" d="M118.33,6.68c0,1.17,0.02,2.34-0.01,3.51c-0.01,0.4,0.08,0.55,0.51,0.53c0.9-0.04,1.8,0.02,2.7-0.02
		c0.65-0.03,0.45,0.42,0.45,0.73c0,0.32,0.17,0.74-0.46,0.72c-1.37-0.04-2.75-0.02-4.12,0c-0.37,0-0.52-0.08-0.52-0.48
		c0.01-2.88,0.02-5.77,0-8.65c0-0.7,0.49-0.42,0.8-0.45c0.32-0.03,0.67-0.12,0.65,0.46C118.3,4.24,118.33,5.46,118.33,6.68z"/>
	<path class="st4" d="M51.77,7.38c0-1.44,0.03-2.88-0.01-4.32c-0.02-0.68,0.42-0.48,0.76-0.49c0.35-0.01,0.69-0.11,0.69,0.5
		c-0.03,2.86-0.03,5.72,0,8.58c0.01,0.61-0.34,0.51-0.69,0.5c-0.35-0.01-0.78,0.16-0.76-0.51C51.8,10.21,51.77,8.79,51.77,7.38z"/>
	<path class="st4" d="M73.38,7.38c0,1.42-0.03,2.84,0.01,4.25c0.02,0.67-0.41,0.49-0.75,0.51c-0.35,0.02-0.7,0.09-0.69-0.51
		c0.03-2.86,0.03-5.71,0-8.57c-0.01-0.61,0.34-0.51,0.69-0.5c0.34,0.01,0.78-0.18,0.76,0.5C73.35,4.5,73.38,5.94,73.38,7.38z"/>
	<path class="st4" d="M140.97,7.3c0-1.42,0.03-2.84-0.01-4.26c-0.02-0.7,0.45-0.46,0.77-0.48c0.34-0.02,0.7-0.13,0.7,0.49
		c-0.03,2.87-0.03,5.73,0,8.6c0.01,0.69-0.45,0.47-0.78,0.49c-0.34,0.02-0.71,0.11-0.69-0.5C141,10.19,140.97,8.75,140.97,7.3z"/>
	<path class="st3" d="M48,33.35c0,0.56-0.07,1.14,0.02,1.69c0.11,0.64-0.33,0.62-0.6,0.48c-0.33-0.17-0.53-0.08-0.8,0.04
		c-0.56,0.23-1.12,0.18-1.57-0.24c-0.25-0.23-0.4-0.29-0.67-0.05c-1,0.88-2.49,0.35-2.47-1.11c0.01-0.79-0.01-1.58-0.02-2.36
		c0-0.24,0.03-0.45,0.35-0.46c0.32-0.01,0.36,0.19,0.36,0.44c0,0.65-0.01,1.31-0.01,1.96c0,0.86,0.28,1.25,0.89,1.25
		c0.68,0.01,1.11-0.51,1.11-1.32c0-0.61-0.01-1.22-0.01-1.83c0-0.26,0.01-0.51,0.38-0.5c0.39,0,0.34,0.28,0.34,0.52
		c0.01,0.76-0.01,1.53,0.04,2.29c0.03,0.4,0.14,0.8,0.7,0.82c0.54,0.02,0.91-0.14,1.12-0.66c0.25-0.64,0.03-1.29,0.12-1.94
		c0.03-0.22,0-0.45,0.01-0.68c0.01-0.25,0.12-0.37,0.38-0.35c0.25,0.02,0.35,0.11,0.34,0.38C47.99,32.27,48,32.81,48,33.35
		C48,33.35,48,33.35,48,33.35z"/>
	<path class="st3" d="M152.04,33.58c0,0.54-0.02,1.08,0,1.62c0.02,0.46-0.31,0.55-0.55,0.37c-0.36-0.26-0.59-0.12-0.91,0.01
		c-0.53,0.22-1.09,0.16-1.51-0.23c-0.27-0.25-0.42-0.3-0.72-0.06c-0.48,0.39-1.03,0.56-1.63,0.27c-0.61-0.29-0.8-0.81-0.8-1.44
		c0-0.79-0.01-1.58-0.02-2.36c0-0.23,0.03-0.4,0.32-0.41c0.3-0.01,0.4,0.12,0.39,0.41c-0.01,0.68-0.01,1.35-0.01,2.03
		c0,0.81,0.28,1.2,0.85,1.23c0.63,0.03,1.11-0.46,1.14-1.23c0.03-0.63,0-1.26,0-1.89c0-0.28-0.02-0.56,0.4-0.55
		c0.39,0.02,0.32,0.3,0.32,0.54c0,0.69-0.03,1.39,0.01,2.08c0.03,0.46,0.07,0.97,0.74,1.01c0.66,0.05,1.02-0.26,1.16-0.87
		c0.16-0.71,0.03-1.44,0.07-2.15c0.01-0.28-0.08-0.63,0.4-0.61c0.43,0.02,0.33,0.36,0.33,0.6c0.01,0.54,0,1.08,0,1.62
		C152.03,33.58,152.04,33.58,152.04,33.58z"/>
	<path class="st3" d="M164.12,33.5c0,0.52-0.06,1.05,0.02,1.55c0.08,0.57-0.24,0.6-0.58,0.46c-0.31-0.13-0.53-0.1-0.81,0.03
		c-0.63,0.28-1.23,0.23-1.72-0.32c-0.19-0.21-0.27-0.28-0.53-0.03c-0.99,0.95-2.13,0.6-2.46-0.73c-0.23-0.91-0.04-1.84-0.09-2.76
		c-0.02-0.33,0.23-0.34,0.46-0.35c0.31-0.02,0.29,0.21,0.29,0.41c0,0.72-0.01,1.44,0,2.17c0.01,0.73,0.27,1.05,0.84,1.07
		c0.63,0.02,1.03-0.33,1.08-1.03c0.04-0.63,0.02-1.26,0.04-1.89c0.01-0.31-0.13-0.73,0.42-0.74c0.57-0.01,0.32,0.44,0.33,0.69
		c0.03,0.65,0,1.31,0.01,1.96c0.01,0.55,0.19,0.98,0.83,1.01c0.54,0.02,1.05-0.42,1.08-0.99c0.04-0.72,0.04-1.44,0.01-2.16
		c-0.02-0.42,0.21-0.5,0.52-0.52c0.39-0.02,0.25,0.31,0.26,0.49C164.13,32.38,164.12,32.94,164.12,33.5
		C164.12,33.5,164.12,33.5,164.12,33.5z"/>
	<path class="st3" d="M72.24,33.5c0,0.54,0.01,1.08,0,1.62c-0.01,0.38-0.51,0.64-0.67,0.37c-0.2-0.34-0.27-0.22-0.51-0.08
		c-0.8,0.48-1.29,0.41-1.97-0.28c-0.18-0.19-0.21-0.18-0.38,0c-0.51,0.54-1.13,0.74-1.83,0.41c-0.7-0.33-0.81-0.96-0.8-1.65
		c0.01-0.7-0.01-1.4,0-2.1c0-0.18-0.13-0.5,0.26-0.49c0.33,0.01,0.53,0.14,0.51,0.54c-0.03,0.74-0.01,1.49-0.01,2.23
		c0,0.41,0.09,0.78,0.56,0.87c0.48,0.1,0.89,0,1.16-0.46c0.16-0.26,0.21-0.54,0.21-0.84c0-0.61-0.01-1.22,0-1.83
		c0-0.23-0.06-0.52,0.35-0.5c0.34,0.01,0.42,0.18,0.42,0.47c-0.01,0.65-0.01,1.31,0,1.96c0.01,0.94,0.22,1.23,0.87,1.22
		c0.64-0.01,1.06-0.5,1.07-1.3c0.01-0.65,0.01-1.31,0-1.96c0-0.23,0.02-0.4,0.32-0.38c0.25,0.02,0.44,0.07,0.43,0.38
		C72.23,32.32,72.23,32.91,72.24,33.5C72.24,33.5,72.24,33.5,72.24,33.5z"/>
	<path class="st3" d="M126.45,33.01c0-0.41,0-0.81,0-1.22c0-0.23-0.03-0.46,0.33-0.44c0.3,0.01,0.38,0.17,0.38,0.44
		c0.01,0.65,0.01,1.31,0.03,1.96c0.02,0.89,0.27,1.25,0.87,1.26c0.62,0.02,1.07-0.47,1.11-1.27c0.03-0.65,0.02-1.31,0-1.96
		c-0.02-0.52,0.41-0.56,0.6-0.37c0.31,0.32,0.48,0.1,0.71,0c1.1-0.5,2.07,0.1,2.13,1.38c0.04,0.79-0.01,1.58,0,2.37
		c0,0.31-0.12,0.47-0.43,0.48c-0.34,0.01-0.31-0.25-0.31-0.48c0-0.7,0.01-1.4,0-2.1c-0.01-0.71-0.35-1.13-0.89-1.13
		c-0.58,0-0.99,0.41-1.02,1.09c-0.03,0.7-0.02,1.4-0.03,2.09c0,0.18,0.03,0.38-0.19,0.46c-0.19,0.06-0.44,0.12-0.54-0.1
		c-0.15-0.33-0.32-0.17-0.46-0.05c-0.84,0.71-2.43,0.03-2.29-1.27c0.04-0.38,0.01-0.77,0.01-1.15
		C126.46,33.01,126.45,33.01,126.45,33.01z"/>
	<path class="st3" d="M109.87,34.91c-0.29,0.29-0.53,0.6-0.9,0.72c-0.91,0.3-1.81-0.3-1.9-1.33c-0.07-0.85-0.02-1.71-0.03-2.57
		c0-0.3,0.15-0.39,0.42-0.39c0.27,0,0.35,0.14,0.35,0.38c-0.01,0.74,0,1.49-0.01,2.23c0,0.56,0.16,0.99,0.79,1.05
		c0.61,0.06,1.07-0.34,1.12-0.98c0.05-0.67,0.03-1.35,0.03-2.03c0-0.33-0.04-0.65,0.45-0.64c0.47,0.01,0.3,0.36,0.31,0.59
		c0.02,0.68,0.01,1.35,0.01,2.03c0,0.56,0.17,0.98,0.81,1.02c0.57,0.04,1.08-0.4,1.11-1.02c0.04-0.7,0.02-1.4,0.02-2.09
		c0-0.28-0.01-0.54,0.41-0.53c0.41,0,0.34,0.26,0.34,0.5c0,1.08,0,2.16,0,3.24c0,0.46-0.19,0.66-0.62,0.41
		c-0.23-0.13-0.4-0.12-0.63-0.03C110.99,35.88,110.59,35.77,109.87,34.91z"/>
	<path class="st3" d="M56.79,34.96c-0.93,0.85-1.53,0.96-2.25,0.45c-0.51-0.37-0.53-0.93-0.57-1.45c-0.06-0.72-0.01-1.44-0.03-2.16
		c-0.01-0.31,0.1-0.45,0.43-0.46c0.34,0,0.34,0.21,0.34,0.45c0,0.68-0.01,1.35,0,2.03c0.01,0.85,0.25,1.18,0.86,1.18
		c0.68,0.01,1.03-0.35,1.07-1.17c0.03-0.65,0.02-1.31,0.02-1.96c0-0.31,0.05-0.52,0.43-0.52c0.42,0.01,0.32,0.3,0.32,0.52
		c0.01,0.7,0.01,1.4,0,2.1c0,0.56,0.18,0.98,0.81,1.03c0.55,0.04,1.08-0.44,1.11-1.04c0.03-0.67,0.03-1.35,0.01-2.03
		c-0.02-0.38,0.07-0.61,0.49-0.61c0.5,0,0.3,0.41,0.27,0.59c-0.17,1.07,0.04,2.11,0.11,3.17c0.03,0.41-0.25,0.66-0.62,0.46
		c-0.33-0.18-0.56-0.12-0.87,0.01C57.98,35.89,57.48,35.71,56.79,34.96z"/>
	<path class="st3" d="M136.59,34.92c-0.83,0.93-1.75,1.03-2.4,0.32c-0.24-0.26-0.36-0.59-0.38-0.91c-0.04-0.88-0.02-1.76-0.04-2.64
		c-0.01-0.27,0.13-0.35,0.37-0.35c0.25,0,0.37,0.1,0.37,0.36c0,0.72,0.01,1.44,0.02,2.16c0.02,0.88,0.19,1.11,0.81,1.13
		c0.64,0.02,1.11-0.43,1.13-1.16c0.02-0.68,0.01-1.35,0-2.03c0-0.24,0-0.45,0.33-0.45c0.33-0.01,0.43,0.14,0.43,0.45
		c-0.01,0.7-0.01,1.4,0,2.1c0.01,0.55,0.07,1.06,0.8,1.08c0.61,0.02,1.09-0.41,1.13-1.08c0.04-0.67,0-1.35,0.02-2.03
		c0-0.22-0.1-0.53,0.32-0.54c0.38-0.01,0.44,0.19,0.44,0.51c-0.01,1.06,0.01,2.12,0.01,3.18c0,0.23,0.01,0.48-0.26,0.56
		c-0.21,0.06-0.4-0.01-0.51-0.22c-0.17-0.32-0.28-0.01-0.39,0.05C137.87,35.91,137.29,35.79,136.59,34.92z"/>
	<path class="st3" d="M180.74,34.95c-0.29,0.23-0.51,0.48-0.84,0.61c-0.95,0.4-1.9-0.13-1.96-1.15c-0.06-0.88-0.03-1.76-0.04-2.64
		c0-0.24,0.01-0.45,0.35-0.43c0.31,0.01,0.36,0.21,0.37,0.45c0.02,0.81,0.03,1.62,0.05,2.42c0.01,0.4,0.15,0.72,0.61,0.75
		c0.46,0.03,0.87,0,1.12-0.52c0.39-0.83,0.13-1.69,0.22-2.53c0.02-0.19-0.11-0.47,0.13-0.54c0.31-0.1,0.58-0.02,0.57,0.41
		c-0.02,0.65-0.01,1.31,0,1.96c0.02,0.86,0.26,1.23,0.82,1.25c0.63,0.03,1.12-0.44,1.17-1.22c0.04-0.65,0-1.31,0.01-1.96
		c0-0.2-0.09-0.48,0.28-0.49c0.33-0.01,0.44,0.15,0.44,0.45c0,1.03,0.02,2.07,0.01,3.1c-0.01,0.73-0.17,0.83-0.78,0.42
		c-0.22-0.14-0.28,0.02-0.39,0.09C182.02,35.89,181.33,35.76,180.74,34.95z"/>
	<path class="st3" d="M64.92,33.12c0,0.95,0.01,1.89-0.01,2.84c-0.01,0.37,0.03,0.63,0.49,0.58c0.32-0.03,0.36,0.27,0.26,0.4
		c-0.31,0.41-0.78,0.12-1.18,0.19c-0.24,0.04-0.31-0.11-0.31-0.32c0-0.14,0-0.27,0-0.41c-0.01-0.36,0.13-0.85-0.05-1.05
		c-0.31-0.35-0.53,0.24-0.86,0.31c-0.89,0.19-1.7-0.29-1.84-1.18c-0.14-0.92-0.03-1.84-0.06-2.77c-0.01-0.26,0.14-0.35,0.37-0.37
		c0.29-0.02,0.33,0.15,0.33,0.38c0,0.72-0.02,1.44,0,2.16c0.03,0.93,0.7,1.4,1.51,1.01c0.58-0.27,0.59-0.88,0.6-1.43
		c0.02-1.06,0-2.12,0-3.18c0-0.26-0.07-0.57,0.36-0.56c0.4,0,0.39,0.26,0.39,0.55C64.91,31.23,64.92,32.18,64.92,33.12
		C64.92,33.12,64.92,33.12,64.92,33.12z"/>
	<path class="st3" d="M76.26,31.75c0.53-0.3,0.96-0.64,1.55-0.49c0.73,0.19,1.16,0.58,1.2,1.33c0.05,0.85,0.02,1.71,0.03,2.57
		c0,0.27-0.1,0.44-0.38,0.44c-0.33,0-0.39-0.21-0.39-0.5c0.01-0.7,0-1.4,0-2.1c0-0.53-0.11-1.01-0.75-1.08
		c-0.65-0.08-1.08,0.21-1.22,0.88c-0.22,1.11-0.08,2.25-0.07,3.37c0,0.22,0.06,0.45-0.02,0.67c-0.07,0.18-0.07,0.42-0.38,0.35
		c-0.24-0.06-0.33-0.19-0.33-0.43c0-0.95,0-1.89-0.01-2.84c0-1.2-0.01-2.39-0.01-3.59c0-0.27-0.1-0.64,0.39-0.61
		c0.45,0.03,0.37,0.38,0.38,0.66C76.27,30.81,76.26,31.23,76.26,31.75z"/>
	<path class="st3" d="M119.96,31.64c0.35-0.18,0.63-0.27,0.9-0.36c0.89-0.3,1.76,0.26,1.84,1.21c0.07,0.9,0.05,1.8,0.08,2.7
		c0.01,0.28-0.12,0.43-0.39,0.43c-0.28,0-0.37-0.16-0.37-0.44c0.01-0.74,0.02-1.49-0.04-2.23c-0.08-0.87-0.3-1.05-1.01-1.02
		c-0.58,0.02-1,0.49-1.01,1.19c-0.02,1.13,0,2.25-0.02,3.38c0,0.25,0.2,0.64-0.31,0.66c-0.53,0.02-0.45-0.36-0.45-0.7
		c0-2.05,0-4.1-0.01-6.15c0-0.32-0.01-0.58,0.43-0.57c0.45,0.01,0.34,0.32,0.34,0.57C119.97,30.76,119.96,31.2,119.96,31.64z"/>
	<path class="st3" d="M154.37,31.39c-0.16-0.4-0.89-0.3-0.6-0.87c0.24-0.47,0.5-1.01,1.28-0.68c-0.08,0.15-0.13,0.32-0.25,0.43
		c-0.25,0.23-0.13,0.39,0.07,0.54c0.49,0.36,1,0.67,1.65,0.58c0.41-0.06,0.54,0.32,0.32,0.46c-0.39,0.25-0.2,0.42-0.1,0.68
		c0.45,1.29,0.01,2.56-1.02,2.99c-1.29,0.55-2.54-0.18-2.69-1.57C152.92,32.81,153.26,31.91,154.37,31.39z M156.14,33.62
		c-0.04-0.71-0.14-1.34-0.77-1.62c-0.4-0.17-0.86-0.01-1.18,0.32c-0.49,0.5-0.52,1.68-0.1,2.26c0.25,0.34,0.57,0.51,0.98,0.45
		c0.43-0.06,0.76-0.28,0.9-0.71C156.07,34.07,156.1,33.8,156.14,33.62z"/>
	<path class="st3" d="M100.45,35.16c-0.44,0.23-0.72,0.47-1.09,0.52c-0.88,0.13-1.54-0.34-1.7-1.22c-0.16-0.9-0.07-1.8-0.07-2.7
		c0-0.27,0.1-0.41,0.39-0.42c0.34-0.01,0.36,0.18,0.35,0.43c-0.01,0.68-0.02,1.35-0.01,2.03c0.02,0.81,0.36,1.23,0.95,1.21
		c0.64-0.01,1.16-0.54,1.17-1.25c0.02-1.15,0-2.3,0.01-3.45c0-0.24-0.14-0.58,0.34-0.56c0.43,0.01,0.36,0.31,0.36,0.57
		c0,1.85,0,3.69,0,5.54c0,0.35-0.03,0.7,0.5,0.67c0.24-0.01,0.35,0.18,0.26,0.36c-0.26,0.46-0.73,0.13-1.1,0.24
		c-0.25,0.07-0.37-0.07-0.37-0.33C100.46,36.3,100.45,35.78,100.45,35.16z"/>
	<path class="st3" d="M105.87,34.32c0,0.77-0.01,1.53,0,2.3c0,0.31-0.05,0.5-0.43,0.51c-0.42,0.01-0.34-0.25-0.35-0.49
		c-0.01-0.14,0-0.27,0-0.41c-0.01-0.31,0.11-0.75-0.05-0.92c-0.28-0.28-0.47,0.22-0.75,0.31c-0.91,0.28-1.87-0.27-1.91-1.22
		c-0.06-1.42-0.04-2.84-0.06-4.26c0-0.28,0.08-0.42,0.38-0.42c0.33,0,0.35,0.21,0.35,0.45c0,1.06,0,2.12,0,3.18
		c0,0.25,0.01,0.5,0.03,0.74c0.04,0.54,0.29,0.96,0.85,1.03c0.55,0.06,1.13-0.55,1.16-1.16c0.03-0.7,0.01-1.4,0.01-2.1
		c0-0.25-0.03-0.5,0.36-0.51c0.4-0.01,0.43,0.21,0.43,0.51C105.87,32.7,105.87,33.51,105.87,34.32
		C105.87,34.32,105.87,34.32,105.87,34.32z"/>
	<path class="st3" d="M80.83,32.06c0,0.58,0,1.17,0,1.75c0,0.8,0.27,1.16,0.89,1.18c0.63,0.02,1.13-0.45,1.16-1.14
		c0.03-0.68,0.01-1.35,0.01-2.03c0-0.26-0.01-0.5,0.37-0.48c0.34,0.01,0.41,0.18,0.41,0.47c-0.01,1.1,0,2.21,0,3.31
		c0,0.18,0.01,0.36-0.21,0.44c-0.22,0.08-0.44,0.04-0.53-0.16c-0.13-0.29-0.21-0.16-0.38-0.05c-1.14,0.79-2.52,0.12-2.44-1.35
		c0.06-1.01-0.01-2.03,0-3.04c0-0.36-0.04-0.64-0.49-0.63c-0.23,0-0.32-0.11-0.32-0.33c0-0.26,0.16-0.29,0.36-0.28
		c0.02,0,0.05,0,0.07,0c1.15,0.06,1.16-0.23,1.09,1.05C80.8,31.2,80.82,31.63,80.83,32.06C80.82,32.06,80.82,32.06,80.83,32.06z"/>
	<path class="st3" d="M176.53,37.12c-0.76,0-1.5,0.02-2.25-0.01c-0.66-0.02-0.9-0.48-0.58-1.07c0.08-0.16,0.2-0.3,0.31-0.44
		c0.54-0.71,0.55-1.22,0.03-1.94c-0.61-0.85-0.65-1.41-0.15-1.91c0.66-0.65,1.75-0.71,2.46-0.13c0.6,0.48,0.72,1.4,0.31,2.14
		c-0.41,0.75-1.05,1.27-1.67,1.81c-0.19,0.16-0.38,0.32-0.52,0.52c-0.16,0.22-0.15,0.44,0.22,0.44c0.38,0,0.77,0.03,1.15,0
		C176.3,36.49,176.48,36.71,176.53,37.12z M175.1,34.49c0.5-0.34,0.83-0.76,1.01-1.27c0.17-0.47,0.04-0.95-0.39-1.19
		c-0.39-0.22-0.9-0.27-1.25,0.12c-0.36,0.4-0.17,0.79,0.13,1.14C174.88,33.63,175.01,34.03,175.1,34.49z"/>
	<path class="st3" d="M185.98,32.02c0,0.68-0.03,1.35,0.01,2.03c0.05,0.71,0.36,1,0.94,0.97c0.54-0.02,1.03-0.47,1.06-1.03
		c0.03-0.65,0.01-1.31,0.02-1.96c0.01-0.29-0.11-0.67,0.41-0.68c0.51,0,0.35,0.38,0.35,0.63c0.01,1.04-0.01,2.07,0.01,3.11
		c0.01,0.47-0.15,0.66-0.58,0.43c-0.3-0.16-0.52-0.1-0.81,0.03c-1.07,0.49-2.1-0.16-2.13-1.33c-0.03-1.1-0.02-2.21-0.01-3.31
		c0-0.36-0.02-0.64-0.49-0.57c-0.23,0.03-0.31-0.09-0.31-0.32c0-0.27,0.18-0.28,0.36-0.29c0.2-0.01,0.41,0.02,0.61,0
		c0.45-0.05,0.59,0.15,0.57,0.59c-0.03,0.56-0.01,1.12-0.01,1.69C185.96,32.02,185.97,32.02,185.98,32.02z"/>
	<path class="st3" d="M169.05,34.22c0-0.81-0.01-1.62,0-2.43c0.01-0.39,0.46-0.64,0.66-0.35c0.23,0.33,0.29,0.19,0.52,0.05
		c1.09-0.65,2.39-0.06,2.34,1.15c-0.03,0.85,0.02,1.71,0.04,2.56c0,0.27-0.1,0.44-0.39,0.42c-0.31-0.02-0.32-0.23-0.32-0.48
		c0-0.74,0.02-1.49-0.04-2.22c-0.04-0.57-0.25-1.06-0.99-1c-0.6,0.05-1.03,0.47-1.04,1.17c-0.02,1.17,0,2.34-0.01,3.51
		c0,0.22,0.12,0.52-0.3,0.53c-0.4,0.01-0.48-0.2-0.47-0.55c0.02-0.79,0.01-1.57,0.01-2.36C169.04,34.22,169.04,34.22,169.05,34.22z"
		/>
	<path class="st3" d="M141.16,34.24c0-0.81,0-1.62,0-2.43c0-0.15-0.07-0.34,0.14-0.4c0.19-0.06,0.49-0.13,0.56,0.05
		c0.17,0.4,0.27,0.14,0.46,0.04c1.18-0.63,2.26-0.07,2.36,1.24c0.06,0.83,0.02,1.66,0.04,2.5c0,0.27-0.14,0.35-0.38,0.35
		c-0.25,0-0.37-0.11-0.36-0.37c0.01-0.7,0.03-1.4,0.01-2.09c-0.02-0.86-0.3-1.19-0.94-1.2c-0.65,0-1.11,0.48-1.13,1.24
		c-0.02,1.15,0.01,2.3-0.02,3.45c0,0.2,0.21,0.58-0.3,0.57c-0.39-0.01-0.47-0.22-0.46-0.57C141.17,35.82,141.15,35.03,141.16,34.24
		C141.15,34.24,141.15,34.24,141.16,34.24z"/>
	<path class="st3" d="M49.29,34.29c0-0.81-0.01-1.62,0-2.43c0-0.5,0.28-0.69,0.64-0.38c0.26,0.22,0.34,0.11,0.55,0
		c1.22-0.64,2.28-0.02,2.33,1.37c0.03,0.74,0.01,1.49,0.02,2.23c0,0.25,0.03,0.52-0.35,0.51c-0.33-0.01-0.41-0.19-0.4-0.49
		c0.01-0.7,0.01-1.4-0.01-2.1c-0.01-0.54-0.08-1.06-0.81-1.07c-0.74-0.01-1.15,0.33-1.18,1.07c-0.04,1.19-0.03,2.39-0.03,3.58
		c0,0.29,0.05,0.58-0.42,0.57c-0.5-0.01-0.31-0.35-0.32-0.57C49.27,35.82,49.29,35.05,49.29,34.29z"/>
	<path class="st3" d="M36.26,33.87c-0.01-0.44,0.15-0.66,0.35-0.85c0.74-0.7,1.6-1.21,2.52-1.64c0.42-0.2,0.62-0.41,0.21-0.84
		c-0.12-0.12-0.44-0.34-0.16-0.54c0.21-0.14,0.57-0.13,0.76,0.07c0.3,0.33,0.58,0.69,0.79,1.09c0.21,0.4-0.27,0.41-0.45,0.48
		c-0.91,0.35-1.74,0.82-2.53,1.38c-0.21,0.15-0.51,0.29-0.5,0.59c0.02,0.34,0.38,0.25,0.59,0.33c0.86,0.31,1.73,0.61,2.61,0.88
		c0.38,0.12,0.54,0.35,0.41,0.69c-0.16,0.42-0.43,0.1-0.66,0.04c-1.03-0.31-2.06-0.62-3.08-0.94C36.67,34.48,36.3,34.26,36.26,33.87
		z"/>
	<path class="st3" d="M90.67,34.06c-0.66,0.08-1.29,0.34-1.98,0.08c-0.67-0.25-1.1-0.63-1.24-1.35c-0.15-0.78-0.05-1.57-0.13-2.36
		c-0.03-0.26,0.05-0.48,0.41-0.48c0.38-0.01,0.47,0.2,0.46,0.51c-0.04,0.74-0.06,1.48,0.08,2.22c0.13,0.64,0.56,0.87,1.15,0.91
		c0.72,0.04,1.2-0.27,1.33-0.86c0.07-0.31,0.09-0.62,0.12-0.94c0.02-0.23,0.01-0.46,0.36-0.43c0.28,0.02,0.45,0.09,0.45,0.44
		c-0.01,1.13,0,2.25,0,3.38c0,0.25-0.06,0.44-0.38,0.41c-0.28-0.02-0.4-0.16-0.41-0.42c-0.01-0.33,0.05-0.68-0.1-1
		c0.01-0.05,0.03-0.11,0.04-0.16C90.76,34.02,90.72,34.04,90.67,34.06z"/>
	<path class="st3" d="M166.44,37.14c-0.29,0-0.59-0.01-0.88,0c-0.34,0.01-0.62-0.07-0.79-0.39c-0.17-0.32,0.01-0.59,0.19-0.81
		c0.37-0.44,0.78-0.85,1.19-1.26c0.39-0.4,0.8-0.77,1.04-1.3c0.33-0.75-0.06-1.43-0.87-1.46c-0.34-0.01-0.68-0.02-1,0.1
		c-0.15,0.06-0.31,0.17-0.35-0.09c-0.03-0.17-0.08-0.35,0.11-0.49c0.82-0.6,2.58-0.05,2.93,0.9c0.3,0.8-0.13,1.39-0.55,1.97
		c-0.42,0.59-1.02,1-1.53,1.51c-0.16,0.16-0.37,0.31-0.25,0.57c0.11,0.24,0.36,0.14,0.55,0.14c0.45,0.01,0.9,0,1.35,0
		c0.22,0,0.32,0.1,0.31,0.33c-0.01,0.22-0.14,0.26-0.31,0.26C167.21,37.13,166.82,37.13,166.44,37.14
		C166.44,37.13,166.44,37.14,166.44,37.14z"/>
	<path class="st3" d="M92.89,33.44c0-0.52-0.01-1.04,0-1.55c0-0.17-0.08-0.41,0.11-0.49c0.2-0.08,0.49-0.12,0.62,0.08
		c0.15,0.23,0.2,0.15,0.39,0.05c1.4-0.73,2.39-0.12,2.4,1.46c0,0.72-0.01,1.44,0.01,2.16c0.01,0.27-0.06,0.44-0.36,0.45
		c-0.29,0.01-0.39-0.16-0.39-0.43c0-0.74,0.02-1.49-0.01-2.23c-0.03-0.81-0.25-1.03-0.92-1.03c-0.6,0-1.04,0.42-1.06,1.06
		c-0.03,0.7-0.02,1.4-0.01,2.09c0,0.3-0.05,0.54-0.42,0.55c-0.42,0.01-0.37-0.3-0.37-0.56C92.89,34.52,92.89,33.98,92.89,33.44z"/>
	<path class="st3" d="M117.95,33.46c0,0.56,0,1.13,0,1.69c0,0.19-0.02,0.38-0.24,0.43c-0.17,0.04-0.38,0.06-0.46-0.16
		c-0.07-0.21-0.11-0.21-0.31-0.08c-0.6,0.4-1.23,0.49-1.9,0.07c-0.24-0.15-0.42-0.3-0.48-0.57c-0.24-1.04-0.1-2.1-0.14-3.16
		c-0.01-0.34,0.28-0.34,0.47-0.37c0.24-0.03,0.25,0.21,0.25,0.39c0.01,0.7-0.01,1.4,0.01,2.09c0.03,0.8,0.33,1.2,0.87,1.22
		c0.66,0.02,1.14-0.41,1.19-1.18c0.05-0.65,0.01-1.3,0.03-1.96c0-0.22-0.1-0.53,0.31-0.53c0.41,0,0.38,0.29,0.38,0.57
		C117.95,32.43,117.95,32.95,117.95,33.46C117.95,33.46,117.95,33.46,117.95,33.46z"/>
	<path class="st3" d="M74.2,33.86c0,0.72,0.02,1.45-0.01,2.17c-0.03,0.75-0.56,1.21-1.23,1.12c-0.14-0.02-0.33-0.02-0.34-0.25
		c-0.01-0.17,0-0.33,0.22-0.35c0.73-0.08,0.64-0.65,0.64-1.12c0.02-1.17,0.01-2.35-0.01-3.52c-0.01-0.34,0.04-0.58,0.45-0.57
		c0.42,0.02,0.28,0.34,0.29,0.55c0.02,0.65,0.01,1.31,0.01,1.96C74.21,33.86,74.21,33.86,74.2,33.86z"/>
	<path class="st4" d="M106.7,2.05c-0.47-0.03-0.76-0.31-0.8-0.8c-0.04-0.47,0.36-0.87,0.84-0.86c0.47,0,0.87,0.4,0.83,0.87
		C107.52,1.75,107.25,2.04,106.7,2.05z"/>
	<path class="st4" d="M103.87,0.38c0.49,0.06,0.8,0.3,0.83,0.81c0.03,0.49-0.34,0.87-0.82,0.87c-0.49,0-0.85-0.37-0.82-0.86
		C103.07,0.67,103.4,0.45,103.87,0.38z"/>
	<path class="st0" d="M96.7,9.37c0-1.4,0-1.4,1.57-1.3c1.1,0.07,1.67,0.88,1.29,1.84c-0.19,0.48-0.54,0.76-1.07,0.8
		c-0.13,0.01-0.27,0.01-0.41,0.01C96.69,10.72,96.69,10.72,96.7,9.37z"/>
	<path class="st0" d="M96.69,5.3c0-0.05-0.01-0.1,0-0.13c0.18-0.41-0.49-1.22,0.6-1.2c1.25,0.02,1.9,0.43,1.94,1.3
		c0.03,0.73-0.57,1.33-1.37,1.38C96.69,6.7,96.69,6.7,96.69,5.3z"/>
	<path class="st0" d="M65.43,5.26c0-1.31,0-1.31,1.32-1.29c0.95,0.01,1.51,0.52,1.5,1.36c-0.01,0.8-0.57,1.3-1.47,1.31
		C65.43,6.66,65.43,6.66,65.43,5.26z"/>
	<path class="st0" d="M106.98,7.39c0,0.63,0.02,1.26,0,1.89c-0.04,0.92-0.73,1.57-1.61,1.57c-0.88-0.01-1.57-0.67-1.59-1.59
		c-0.03-1.28-0.03-2.57,0-3.85c0.02-0.88,0.77-1.59,1.62-1.59c0.86,0,1.56,0.69,1.59,1.61C107,6.09,106.98,6.74,106.98,7.39z"/>
	<path class="st0" d="M156.14,33.62c-0.04,0.18-0.08,0.45-0.16,0.7c-0.14,0.42-0.47,0.65-0.9,0.71c-0.41,0.06-0.74-0.11-0.98-0.45
		c-0.42-0.58-0.39-1.76,0.1-2.26c0.32-0.32,0.78-0.49,1.18-0.32C156.01,32.28,156.1,32.91,156.14,33.62z"/>
	<path class="st0" d="M175.1,34.49c-0.1-0.46-0.22-0.86-0.5-1.19c-0.3-0.35-0.49-0.75-0.13-1.14c0.36-0.39,0.86-0.34,1.25-0.12
		c0.42,0.24,0.56,0.71,0.39,1.19C175.93,33.73,175.61,34.15,175.1,34.49z"/>
	<path class="st0" d="M90.67,34.06c0.05-0.02,0.09-0.04,0.14-0.06c-0.01,0.05-0.03,0.11-0.04,0.16
		C90.74,34.13,90.7,34.09,90.67,34.06z"/>
	<path class="st5" d="M9.9,7.3c0-1.49,0.01-2.97,0-4.46c0-0.36,0.04-0.58,0.5-0.57c1.53,0.03,3.06,0.02,4.59,0
		c0.45-0.01,0.57,0.15,0.56,0.59c-0.01,3-0.01,5.99,0.01,8.99c0,0.45-0.15,0.58-0.59,0.57c-1.55-0.03-3.11-0.05-4.66-0.03
		c-0.44,0.01-0.41-0.22-0.41-0.5C9.9,10.36,9.9,8.83,9.9,7.3C9.9,7.3,9.9,7.3,9.9,7.3z"/>
</g>
</svg>
