<?xml version="1.0" standalone="no"?><!-- Generator: Gravit.io --><svg xmlns="http://www.w3.org/2000/svg" xmlns:xlink="http://www.w3.org/1999/xlink" style="isolation:isolate" viewBox="0 0 560 315" width="560" height="315"><defs><clipPath id="_clipPath_3YSfKzxRRBZzHKgF42Bt9LpwLaDJ6vYM"><rect width="560" height="315"/></clipPath></defs><g clip-path="url(#_clipPath_3YSfKzxRRBZzHKgF42Bt9LpwLaDJ6vYM)"><path d=" M 112 89 L 417.5 89 L 417.5 195 L 112 195 L 112 89 Z  M 124.852 100.778 L 175.772 100.778 C 181.767 100.778 186.634 106.538 186.634 113.633 L 186.634 131.5 C 186.634 138.595 181.767 144.356 175.772 144.356 L 124.852 144.356 C 118.857 144.356 113.99 138.595 113.99 131.5 L 113.99 113.633 C 113.99 106.538 118.857 100.778 124.852 100.778 Z  M 203.281 99.011 L 241.634 99.011 C 246.978 99.011 251.316 104.146 251.316 110.47 L 251.316 131.13 C 251.316 137.454 246.978 142.589 241.634 142.589 L 203.281 142.589 C 197.938 142.589 193.599 137.454 193.599 131.13 L 193.599 110.47 C 193.599 104.146 197.938 99.011 203.281 99.011 Z  M 269.581 99.011 L 325.597 99.011 C 331.833 99.011 336.896 105.003 336.896 112.384 L 336.896 129.216 C 336.896 136.597 331.833 142.589 325.597 142.589 L 269.581 142.589 C 263.345 142.589 258.282 136.597 258.282 129.216 L 258.282 112.384 C 258.282 105.003 263.345 99.011 269.581 99.011 Z  M 373.715 108.698 L 373.715 177.658 C 373.715 184.304 369.156 189.7 363.541 189.7 L 354.036 189.7 C 348.421 189.7 343.862 184.304 343.862 177.658 L 343.862 108.698 C 343.862 102.051 348.421 96.656 354.036 96.656 L 363.541 96.656 C 369.156 96.656 373.715 102.051 373.715 108.698 Z  M 413.52 108.698 L 413.52 177.658 C 413.52 184.304 408.961 189.7 403.345 189.7 L 393.841 189.7 C 388.225 189.7 383.666 184.304 383.666 177.658 L 383.666 108.698 C 383.666 102.051 388.225 96.656 393.841 96.656 L 403.345 96.656 C 408.961 96.656 413.52 102.051 413.52 108.698 Z " fill-rule="evenodd" fill="rgb(234,196,111)"/><g id="Group"><path d=" M 387.758 219 C 387.758 205.754 396.72 195 407.758 195 C 418.796 195 427.758 205.754 427.758 219 C 427.758 232.246 418.796 243 407.758 243 C 396.72 243 387.758 232.246 387.758 219 Z " fill="rgb(50,50,50)"/><path d=" M 381.758 219 C 381.758 205.754 390.72 195 401.758 195 C 412.796 195 421.758 205.754 421.758 219 C 421.758 232.246 412.796 243 401.758 243 C 390.72 243 381.758 232.246 381.758 219 Z " fill="rgb(78,76,78)"/></g><g id="Group"><path d=" M 196.5 219 C 196.5 205.754 205.462 195 216.5 195 C 227.538 195 236.5 205.754 236.5 219 C 236.5 232.246 227.538 243 216.5 243 C 205.462 243 196.5 232.246 196.5 219 Z " fill="rgb(50,50,50)"/><path d=" M 190.5 219 C 190.5 205.754 199.462 195 210.5 195 C 221.538 195 230.5 205.754 230.5 219 C 230.5 232.246 221.538 243 210.5 243 C 199.462 243 190.5 232.246 190.5 219 Z " fill="rgb(78,76,78)"/></g><path d=" M 128 72 L 400 72 C 411.038 72 420 80.962 420 92 L 420 216 L 108 216 L 108 92 C 108 80.962 116.962 72 128 72 Z  M 129.96 96 L 154.04 96 C 161.193 96 167 101.807 167 108.96 L 167 131.04 C 167 138.193 161.193 144 154.04 144 L 129.96 144 C 122.807 144 117 138.193 117 131.04 L 117 108.96 C 117 101.807 122.807 96 129.96 96 Z  M 183.96 96 L 208.04 96 C 215.193 96 221 101.807 221 108.96 L 221 131.04 C 221 138.193 215.193 144 208.04 144 L 183.96 144 C 176.807 144 171 138.193 171 131.04 L 171 108.96 C 171 101.807 176.807 96 183.96 96 Z  M 291 96 C 298.175 96 304 101.825 304 109 L 304 131 C 304 138.175 298.175 144 291 144 C 283.825 144 278 138.175 278 131 L 278 109 C 278 101.825 283.825 96 291 96 Z  M 225 96 L 275 96 L 275 199 L 225 199 L 225 96 Z  M 308 93 L 417.5 93 L 417.5 138 L 308 138 L 308 93 Z " fill-rule="evenodd" fill="rgb(255,208,56)"/><path d="M 354.045 109.615 L 376.955 109.615 C 378.636 109.615 380 110.979 380 112.66 L 380 137.57 C 380 139.25 378.636 140.615 376.955 140.615 L 354.045 140.615 C 352.364 140.615 351 139.25 351 137.57 L 351 112.66 C 351 110.979 352.364 109.615 354.045 109.615 Z" style="stroke:none;fill:#637C92;stroke-miterlimit:10;"/><path d=" M 367 132.885 C 367 125.435 373.049 119.385 380.5 119.385 C 387.951 119.385 394 125.435 394 132.885 C 394 140.336 387.951 146.385 380.5 146.385 C 373.049 146.385 367 140.336 367 132.885 Z " fill="none" vector-effect="non-scaling-stroke" stroke-width="3" stroke="rgb(72,92,109)" stroke-linejoin="miter" stroke-linecap="square" stroke-miterlimit="3"/><path d="M 352.385 109.615 L 355.615 109.615 C 356.379 109.615 357 110.235 357 111 L 357 139.23 C 357 139.994 356.379 140.615 355.615 140.615 L 352.385 140.615 C 351.621 140.615 351 139.994 351 139.23 L 351 111 C 351 110.235 351.621 109.615 352.385 109.615 Z" style="stroke:none;fill:#6E879D;stroke-miterlimit:10;"/><rect x="309" y="127.615" width="105" height="20" transform="matrix(1,0,0,1,0,0)" fill="rgb(99,124,146)"/><path d="M 383.519 97.126 L 397.481 97.126 C 399.423 97.126 401 98.702 401 100.644 L 401 105.336 C 401 107.278 399.423 108.855 397.481 108.855 L 383.519 108.855 C 381.577 108.855 380 107.278 380 105.336 L 380 100.644 C 380 98.702 381.577 97.126 383.519 97.126 Z" style="stroke:none;fill:#566771;stroke-miterlimit:10;"/><path d="M 389.94 91.855 L 390.06 91.855 C 391.131 91.855 392 92.724 392 93.795 L 392 100.686 C 392 101.756 391.131 102.626 390.06 102.626 L 389.94 102.626 C 388.869 102.626 388 101.756 388 100.686 L 388 93.795 C 388 92.724 388.869 91.855 389.94 91.855 Z" style="stroke:none;fill:#819196;stroke-miterlimit:10;"/><path d=" M 327 72 L 399 72 C 410.59 72 420 81.41 420 93 L 420 160 L 306 160 L 306 93 C 306 81.41 315.41 72 327 72 Z  M 310 95.5 L 415 95.5 L 415 134 L 310 134 L 310 95.5 Z " fill-rule="evenodd" fill="rgb(255,179,51)"/><path d="M 335.48 128.5 L 407.52 128.5 C 417.719 128.5 426 136.781 426 146.98 L 426 166.02 C 426 176.219 417.719 184.5 407.52 184.5 L 335.48 184.5 C 325.281 184.5 317 176.219 317 166.02 L 317 146.98 C 317 136.781 325.281 128.5 335.48 128.5 Z" style="stroke:none;fill:#FFD038;stroke-miterlimit:10;"/><path d=" M 369 149.5 L 348 149.5 C 341.929 149.5 337 154.429 337 160.5 L 337 205.5 L 457 205.5 L 457 160.5 C 457 154.429 452.071 149.5 446 149.5 L 427 149.5 L 427 140.5 C 427 133.877 421.623 128.5 415 128.5 L 381 128.5 C 374.377 128.5 369 133.877 369 140.5 L 369 149.5 Z " fill="rgb(255,179,51)"/><path d="M 347 199 L 452 199 C 457.519 199 462 203.481 462 209 L 462 209 C 462 214.519 457.519 219 452 219 L 347 219 C 341.481 219 337 214.519 337 209 L 337 209 C 337 203.481 341.481 199 347 199 Z" style="stroke:none;fill:#4E4C4F;stroke-miterlimit:10;"/><path d=" M 353 174.5 C 353 168.981 357.481 164.5 363 164.5 C 368.519 164.5 373 168.981 373 174.5 C 373 180.019 368.519 184.5 363 184.5 C 357.481 184.5 353 180.019 353 174.5 Z " fill="rgb(195,233,236)"/><path d=" M 431 174.5 C 431 168.981 435.481 164.5 441 164.5 C 446.519 164.5 451 168.981 451 174.5 C 451 180.019 446.519 184.5 441 184.5 C 435.481 184.5 431 180.019 431 174.5 Z " fill="rgb(195,233,236)"/><path d="M 354.5 189 L 371.5 189 C 373.156 189 374.5 190.344 374.5 192 L 374.5 192 C 374.5 193.656 373.156 195 371.5 195 L 354.5 195 C 352.844 195 351.5 193.656 351.5 192 L 351.5 192 C 351.5 190.344 352.844 189 354.5 189 Z" style="stroke:none;fill:#E44F41;stroke-miterlimit:10;"/><path d="M 432.5 189 L 449.5 189 C 451.156 189 452.5 190.344 452.5 192 L 452.5 192 C 452.5 193.656 451.156 195 449.5 195 L 432.5 195 C 430.844 195 429.5 193.656 429.5 192 L 429.5 192 C 429.5 190.344 430.844 189 432.5 189 Z" style="stroke:none;fill:#E44F41;stroke-miterlimit:10;"/><path d=" M 171 216 C 171 202.478 160.022 191.5 146.5 191.5 C 132.978 191.5 122 202.478 122 216 L 171 216 Z " fill="rgb(238,125,48)"/><path d=" M 317 216 C 317 202.478 306.022 191.5 292.5 191.5 C 278.978 191.5 268 202.478 268 216 L 317 216 Z " fill="rgb(238,125,48)"/><g id="Group"><path d=" M 131 219 C 131 205.754 139.962 195 151 195 C 162.038 195 171 205.754 171 219 C 171 232.246 162.038 243 151 243 C 139.962 243 131 232.246 131 219 Z " fill="rgb(50,50,50)"/><path d=" M 125 219 C 125 205.754 133.962 195 145 195 C 156.038 195 165 205.754 165 219 C 165 232.246 156.038 243 145 243 C 133.962 243 125 232.246 125 219 Z " fill="rgb(78,76,78)"/><path d=" M 134.167 219 C 134.167 211.825 139.021 206 145 206 C 150.979 206 155.833 211.825 155.833 219 C 155.833 226.175 150.979 232 145 232 C 139.021 232 134.167 226.175 134.167 219 Z " fill="rgb(143,139,129)"/></g><g id="Group"><path d=" M 277 219 C 277 205.754 285.962 195 297 195 C 308.038 195 317 205.754 317 219 C 317 232.246 308.038 243 297 243 C 285.962 243 277 232.246 277 219 Z " fill="rgb(50,50,50)"/><path d=" M 271 219 C 271 205.754 279.962 195 291 195 C 302.038 195 311 205.754 311 219 C 311 232.246 302.038 243 291 243 C 279.962 243 271 232.246 271 219 Z " fill="rgb(78,76,78)"/><path d=" M 280.167 219 C 280.167 211.825 285.021 206 291 206 C 296.979 206 301.833 211.825 301.833 219 C 301.833 226.175 296.979 232 291 232 C 285.021 232 280.167 226.175 280.167 219 Z " fill="rgb(143,139,129)"/></g><g id="Group"><path d=" M 321.957 84 C 321.957 81.696 320.398 79.826 318.478 79.826 C 316.559 79.826 315 81.696 315 84 C 315 86.304 316.559 88.174 318.478 88.174 C 320.398 88.174 321.957 86.304 321.957 84 Z " fill="rgb(249,114,58)"/><path d=" M 323 84 C 323 81.696 321.441 79.826 319.522 79.826 C 317.602 79.826 316.043 81.696 316.043 84 C 316.043 86.304 317.602 88.174 319.522 88.174 C 321.441 88.174 323 86.304 323 84 Z " fill="rgb(254,153,49)"/></g><g id="Group"><path d=" M 414.311 84 C 414.311 81.696 412.752 79.826 410.833 79.826 C 408.913 79.826 407.354 81.696 407.354 84 C 407.354 86.304 408.913 88.174 410.833 88.174 C 412.752 88.174 414.311 86.304 414.311 84 Z " fill="rgb(249,114,58)"/><path d=" M 415.354 84 C 415.354 81.696 413.796 79.826 411.876 79.826 C 409.956 79.826 408.398 81.696 408.398 84 C 408.398 86.304 409.956 88.174 411.876 88.174 C 413.796 88.174 415.354 86.304 415.354 84 Z " fill="rgb(254,153,49)"/></g><path d=" M 228.42 93 L 271.58 93 C 274.019 93 276 95.102 276 97.69 L 276 195.695 C 276 198.284 274.019 200.385 271.58 200.385 L 228.42 200.385 C 225.981 200.385 224 198.284 224 195.695 L 224 97.69 C 224 95.102 225.981 93 228.42 93 Z  M 237.373 98.607 L 262.627 98.607 C 266.217 98.607 269.132 101.7 269.132 105.509 L 269.132 138.304 C 269.132 142.114 266.217 145.207 262.627 145.207 L 237.373 145.207 C 233.783 145.207 230.868 142.114 230.868 138.304 L 230.868 105.509 C 230.868 101.7 233.783 98.607 237.373 98.607 Z  M 237.373 147.289 L 262.627 147.289 C 266.217 147.289 269.132 150.382 269.132 154.191 L 269.132 186.986 C 269.132 190.796 266.217 193.889 262.627 193.889 L 237.373 193.889 C 233.783 193.889 230.868 190.796 230.868 186.986 L 230.868 154.191 C 230.868 150.382 233.783 147.289 237.373 147.289 Z " fill-rule="evenodd" fill="rgb(255,179,51)"/><rect x="108" y="177.658" width="105.5" height="3.5" transform="matrix(1,0,0,1,0,0)" fill="rgb(180,146,64)"/><path d=" M 98 199 L 115 199 C 118.863 199 122 202.137 122 206 L 122 209 C 122 212.863 118.863 216 115 216 L 98 216 L 98 199 Z " fill="rgb(91,91,91)"/><path d=" M 103 175 L 103 160 L 111 160 C 114.311 160 117 162.689 117 166 L 117 175 L 103 175 Z " fill="rgb(254,170,26)"/><path d=" M 103 175 L 103 191.5 L 111 191.5 C 114.311 191.5 117 188.811 117 185.5 L 117 175 L 103 175 Z " fill="rgb(225,70,66)"/><rect x="108" y="156.5" width="105.5" height="3.5" transform="matrix(1,0,0,1,0,0)" fill="rgb(180,146,64)"/><rect x="325.597" y="79" width="79.161" height="10" transform="matrix(1,0,0,1,0,0)" fill="rgb(79,66,75)"/><path d="M 384.162 151.739 L 397.354 151.739 C 398.681 151.739 399.758 152.817 399.758 154.144 L 399.758 154.144 C 399.758 155.471 398.681 156.548 397.354 156.548 L 384.162 156.548 C 382.835 156.548 381.758 155.471 381.758 154.144 L 381.758 154.144 C 381.758 152.817 382.835 151.739 384.162 151.739 Z" style="stroke:none;fill:#7E5325;stroke-miterlimit:10;"/><path d="M 406.162 151.644 L 419.354 151.644 C 420.681 151.644 421.758 152.721 421.758 154.048 L 421.758 154.048 C 421.758 155.375 420.681 156.452 419.354 156.452 L 406.162 156.452 C 404.835 156.452 403.758 155.375 403.758 154.048 L 403.758 154.048 C 403.758 152.721 404.835 151.644 406.162 151.644 Z" style="stroke:none;fill:#7E5325;stroke-miterlimit:10;"/><path d="M 384.162 162.144 L 397.354 162.144 C 398.681 162.144 399.758 163.221 399.758 164.548 L 399.758 164.548 C 399.758 165.875 398.681 166.952 397.354 166.952 L 384.162 166.952 C 382.835 166.952 381.758 165.875 381.758 164.548 L 381.758 164.548 C 381.758 163.221 382.835 162.144 384.162 162.144 Z" style="stroke:none;fill:#7E5325;stroke-miterlimit:10;"/><path d="M 406.162 162.048 L 419.354 162.048 C 420.681 162.048 421.758 163.125 421.758 164.452 L 421.758 164.452 C 421.758 165.779 420.681 166.856 419.354 166.856 L 406.162 166.856 C 404.835 166.856 403.758 165.779 403.758 164.452 L 403.758 164.452 C 403.758 163.125 404.835 162.048 406.162 162.048 Z" style="stroke:none;fill:#7E5325;stroke-miterlimit:10;"/><path d="M 384.162 170.397 L 397.354 170.397 C 398.681 170.397 399.758 171.475 399.758 172.802 L 399.758 172.802 C 399.758 174.129 398.681 175.206 397.354 175.206 L 384.162 175.206 C 382.835 175.206 381.758 174.129 381.758 172.802 L 381.758 172.802 C 381.758 171.475 382.835 170.397 384.162 170.397 Z" style="stroke:none;fill:#7E5325;stroke-miterlimit:10;"/><path d="M 406.162 170.302 L 419.354 170.302 C 420.681 170.302 421.758 171.379 421.758 172.706 L 421.758 172.706 C 421.758 174.033 420.681 175.11 419.354 175.11 L 406.162 175.11 C 404.835 175.11 403.758 174.033 403.758 172.706 L 403.758 172.706 C 403.758 171.379 404.835 170.302 406.162 170.302 Z" style="stroke:none;fill:#7E5325;stroke-miterlimit:10;"/><path d="M 384.162 179.01 L 397.354 179.01 C 398.681 179.01 399.758 180.087 399.758 181.414 L 399.758 181.414 C 399.758 182.741 398.681 183.818 397.354 183.818 L 384.162 183.818 C 382.835 183.818 381.758 182.741 381.758 181.414 L 381.758 181.414 C 381.758 180.087 382.835 179.01 384.162 179.01 Z" style="stroke:none;fill:#7E5325;stroke-miterlimit:10;"/><path d="M 406.162 178.914 L 419.354 178.914 C 420.681 178.914 421.758 179.991 421.758 181.318 L 421.758 181.318 C 421.758 182.645 420.681 183.722 419.354 183.722 L 406.162 183.722 C 404.835 183.722 403.758 182.645 403.758 181.318 L 403.758 181.318 C 403.758 179.991 404.835 178.914 406.162 178.914 Z" style="stroke:none;fill:#7E5325;stroke-miterlimit:10;"/><path d="M 384.162 186.691 L 397.354 186.691 C 398.681 186.691 399.758 187.769 399.758 189.096 L 399.758 189.096 C 399.758 190.423 398.681 191.5 397.354 191.5 L 384.162 191.5 C 382.835 191.5 381.758 190.423 381.758 189.096 L 381.758 189.096 C 381.758 187.769 382.835 186.691 384.162 186.691 Z" style="stroke:none;fill:#7E5325;stroke-miterlimit:10;"/><path d="M 406.162 186.596 L 419.354 186.596 C 420.681 186.596 421.758 187.673 421.758 189 L 421.758 189 C 421.758 190.327 420.681 191.404 419.354 191.404 L 406.162 191.404 C 404.835 191.404 403.758 190.327 403.758 189 L 403.758 189 C 403.758 187.673 404.835 186.596 406.162 186.596 Z" style="stroke:none;fill:#7E5325;stroke-miterlimit:10;"/></g></svg>