<?xml version="1.0" encoding="utf-8"?>
<!-- Generator: Adobe Illustrator 23.0.3, SVG Export Plug-In . SVG Version: 6.00 Build 0)  -->
<svg version="1.1" id="Слой_1" xmlns="http://www.w3.org/2000/svg" xmlns:xlink="http://www.w3.org/1999/xlink" x="0px" y="0px"
	 viewBox="0 0 48.31 48.07" style="enable-background:new 0 0 48.31 48.07;" xml:space="preserve">
<style type="text/css">
	.st0{fill:#17B0A2;}
</style>
<g>
	<g>
		<path class="st0" d="M24.6,1.65c12.69-0.01,22.97,10.28,22.98,23C47.6,37.12,37.15,47.5,24.58,47.46
			C11.45,47.41,1.51,36.41,1.73,24.15C1.95,11.84,12.11,1.65,24.6,1.65z M24.29,12.72c-1.72,0-3.43-0.01-5.15,0
			c-4.01,0.02-6.85,2.7-6.96,6.72c-0.09,3.56-0.09,7.12-0.01,10.68c0.09,3.85,2.78,6.65,6.56,6.76c3.68,0.11,7.37,0.11,11.06,0
			c3.92-0.11,6.64-2.91,6.7-6.82c0.06-3.56,0.07-7.12-0.01-10.68c-0.09-3.87-3-6.65-6.85-6.67C27.85,12.71,26.07,12.72,24.29,12.72z
			"/>
		<path class="st0" d="M24.45,15.01c1.65,0,3.31-0.02,4.96,0c2.77,0.04,4.71,1.85,4.77,4.62c0.07,3.43,0.07,6.87-0.01,10.3
			c-0.06,2.88-1.81,4.57-4.7,4.62c-3.43,0.06-6.87,0.07-10.3,0.02c-2.84-0.04-4.6-1.8-4.66-4.68c-0.07-3.37-0.08-6.74,0-10.11
			c0.07-3.06,1.9-4.75,4.98-4.77C21.14,15,22.79,15.01,24.45,15.01z M24.92,31.04c3.5-0.02,6.28-2.81,6.26-6.28
			c-0.01-3.39-2.94-6.32-6.31-6.3c-3.36,0.01-6.3,2.98-6.29,6.35C18.59,28.23,21.46,31.05,24.92,31.04z M33.53,18.23
			c-1.11-0.66-1.72-1.32-2.21-1.24c-0.51,0.09-1.29,0.91-1.26,1.35c0.04,0.5,0.83,1.25,1.36,1.31
			C31.91,19.71,32.48,18.99,33.53,18.23z"/>
		<path class="st0" d="M24.81,20.74c2.25-0.04,4.04,1.64,4.1,3.85c0.07,2.41-1.58,4.17-3.94,4.2c-2.28,0.03-4.04-1.62-4.1-3.85
			C20.8,22.6,22.51,20.78,24.81,20.74z"/>
	</g>
</g>
</svg>
